<svg width="500" height="500" viewBox="0 0 500 500" fill="none" xmlns="http://www.w3.org/2000/svg">
<path d="M111.37 446C191.43 484.16 321.23 484.16 401.29 446C481.35 407.84 481.29 346 401.29 307.82C321.29 269.64 191.44 269.67 111.38 307.82C31.32 345.97 31.31 407.82 111.37 446Z" fill="#858585"/>
<path d="M379.49 383.73C412.892 383.73 439.97 370.827 439.97 354.91C439.97 338.993 412.892 326.09 379.49 326.09C346.088 326.09 319.01 338.993 319.01 354.91C319.01 370.827 346.088 383.73 379.49 383.73Z" fill="#424141"/>
<path d="M273.06 316.61C259.8 323.61 238.3 323.61 225.06 316.61C211.82 309.61 211.8 298.31 225.06 291.33C238.32 284.35 259.82 284.33 273.06 291.33C286.3 298.33 286.32 309.63 273.06 316.61Z" fill="#424141"/>
<path d="M199.94 358.82C186.68 365.82 165.18 365.82 151.94 358.82C138.7 351.82 138.68 340.53 151.94 333.54C165.2 326.55 186.7 326.54 199.94 333.54C213.18 340.54 213.2 351.84 199.94 358.82Z" fill="#424141"/>
<path d="M126.83 401C113.56 408 92.07 408 78.83 401C65.59 394 65.57 382.7 78.83 375.72C92.09 368.74 113.59 368.72 126.83 375.72C140.07 382.72 140.09 394.06 126.83 401Z" fill="#424141"/>
<path d="M133.82 340.26H71.82L78.24 384.26C78.73 387.48 81.1 390.63 85.37 393.09C95.02 398.66 110.65 398.66 120.3 393.09C124.89 390.44 127.3 387 127.49 383.52L133.82 340.26Z" fill="#37474F"/>
<path d="M127.19 346.68C113.73 354.45 91.9 354.45 78.44 346.68C76.0185 345.33 73.8414 343.582 72 341.51L73.57 352.27C75.2997 354.176 77.3258 355.79 79.57 357.05C92.4 364.45 113.19 364.45 126.02 357.05C128.266 355.785 130.293 354.164 132.02 352.25L133.59 341.53C131.755 343.588 129.593 345.328 127.19 346.68Z" fill="#263238"/>
<path d="M78.22 384.31C78.71 387.53 81.08 390.67 85.35 393.13C92.25 397.13 102.19 398.23 110.83 396.53C95.33 397.71 84.7 390.94 83.11 384.7C81.52 378.46 79.48 347.86 79.48 347.86L81.19 340.94L80.71 340.26H71.8L78.22 384.31Z" fill="#263238"/>
<path d="M137 332.36C136.645 334.091 135.94 335.731 134.93 337.18C132.901 340.05 130.239 342.414 127.15 344.09C113.69 351.86 91.86 351.86 78.4 344.09C75.3108 342.414 72.6487 340.05 70.62 337.18C69.6168 335.728 68.9162 334.089 68.56 332.36C67.36 326.52 70.65 320.43 78.41 315.95C91.87 308.17 113.7 308.17 127.16 315.95C135 320.43 138.24 326.52 137 332.36Z" fill="#455A64"/>
<path d="M135 337.18C132.971 340.05 130.309 342.414 127.22 344.09C113.76 351.86 91.93 351.86 78.47 344.09C75.3808 342.414 72.7187 340.05 70.69 337.18C69.6868 335.728 68.9862 334.089 68.63 332.36L70.16 342.87C70.86 347.1 74.01 351.22 79.63 354.46C92.46 361.86 113.25 361.86 126.08 354.46C131.62 351.26 134.77 347.19 135.52 343.02L135.6 342.48L137 332.36C136.666 334.085 135.986 335.725 135 337.18Z" fill="#37474F"/>
<path d="M123.13 318.29C111.91 311.81 93.72 311.81 82.51 318.29C76.16 321.96 73.41 326.91 74.24 331.69C74.88 335.36 77.64 338.93 82.51 341.74C93.72 348.22 111.91 348.22 123.13 341.74C127.99 338.93 130.75 335.36 131.39 331.74C132.23 326.91 129.48 322 123.13 318.29Z" fill="#37474F"/>
<path d="M76.14 336.13C77.819 338.451 79.9953 340.368 82.51 341.74C93.72 348.22 111.91 348.22 123.13 341.74C125.645 340.368 127.821 338.451 129.5 336.13C129.41 332.25 126.82 328.39 121.69 325.43C111.27 319.43 94.36 319.43 83.95 325.43C78.82 328.39 76.22 332.25 76.14 336.13Z" fill="#E0E0E0"/>
<path d="M101.12 305.47C101.12 305.47 101.18 298.22 96.12 294.29C91.06 290.36 84.64 289.89 83.25 291.11C81.86 292.33 81.88 301.84 86.45 306.21C91.02 310.58 99.55 309.77 101.12 305.47Z" fill="#0752F7"/>
<path opacity="0.1" d="M101.12 305.46C95 296 83.27 291.11 83.27 291.11C84.66 289.89 91.01 290.29 96.14 294.29C101.06 298.12 101.12 305.11 101.12 305.46Z" fill="black"/>
<path d="M106.62 314.35C105.74 303.5 103.05 296.96 102.06 296.96C101.07 296.96 102.66 304.4 101.12 314.18C100.12 320.53 98.12 326.87 97.63 329.49C97.5098 329.77 97.4716 330.079 97.52 330.38C97.609 330.727 97.7734 331.051 98.0015 331.327C98.2297 331.604 98.516 331.827 98.84 331.98C99.8406 332.483 100.945 332.745 102.065 332.745C103.185 332.745 104.289 332.483 105.29 331.98C105.611 331.824 105.895 331.601 106.121 331.324C106.348 331.048 106.511 330.726 106.6 330.38C106.615 330.25 106.615 330.12 106.6 329.99C107.042 324.786 107.048 319.555 106.62 314.35Z" fill="#0752F7"/>
<path opacity="0.1" d="M106.62 314.35C105.74 303.5 103.05 296.96 102.06 296.96C101.07 296.96 102.66 304.4 101.12 314.18C100.12 320.53 98.12 326.87 97.63 329.49C97.5098 329.77 97.4716 330.079 97.52 330.38C97.609 330.727 97.7734 331.051 98.0015 331.327C98.2297 331.604 98.516 331.827 98.84 331.98C99.8406 332.483 100.945 332.745 102.065 332.745C103.185 332.745 104.289 332.483 105.29 331.98C105.611 331.824 105.895 331.601 106.121 331.324C106.348 331.048 106.511 330.726 106.6 330.38C106.615 330.25 106.615 330.12 106.6 329.99C107.042 324.786 107.048 319.555 106.62 314.35Z" fill="black"/>
<path d="M101 286.3L97 278.79L100.22 269.52V263.84L90.38 269.52V275.19L94.61 282.52C94.6784 282.631 94.7797 282.719 94.9 282.77L101 286.3Z" fill="#263238"/>
<path d="M117.5 233.7C117.439 232.672 117.135 231.673 116.614 230.784C116.093 229.896 115.368 229.144 114.5 228.59L112.1 227.21C111.187 226.741 110.176 226.497 109.15 226.497C108.124 226.497 107.113 226.741 106.2 227.21L80.67 242C79.8021 242.552 79.0776 243.302 78.556 244.189C78.0345 245.075 77.7308 246.073 77.67 247.1V276.66C77.7309 277.688 78.0345 278.687 78.556 279.575C79.0774 280.464 79.8019 281.216 80.67 281.77L83.07 283.15C83.9842 283.614 84.9949 283.855 86.02 283.855C87.0451 283.855 88.0558 283.614 88.97 283.15L96.52 278.79L100.74 286.1C100.801 286.204 100.89 286.289 100.997 286.344C101.104 286.399 101.225 286.422 101.345 286.411C101.465 286.399 101.58 286.353 101.674 286.279C101.769 286.204 101.84 286.104 101.88 285.99L106.34 273.12L114.55 268.38C115.418 267.826 116.143 267.074 116.664 266.185C117.185 265.297 117.489 264.298 117.55 263.27L117.5 233.7Z" fill="#37474F"/>
<path d="M77.72 276.64C77.7809 277.668 78.0845 278.667 78.606 279.555C79.1274 280.444 79.8519 281.196 80.72 281.75L83.12 283.13C83.9503 283.549 84.8601 283.787 85.7892 283.829C86.7184 283.87 87.6458 283.714 88.51 283.37C87.12 283.89 86.07 283.11 86.07 281.43V251.87C86.1043 250.846 86.4004 249.847 86.93 248.97L78.63 244.18C78.1004 245.057 77.8043 246.056 77.77 247.08L77.72 276.64Z" fill="#263238"/>
<path d="M117.4 232.86C117.06 231.61 115.92 231.21 114.55 231.99L89 246.77C88.1299 247.31 87.4163 248.069 86.93 248.97L78.63 244.18C79.1257 243.282 79.8414 242.525 80.71 241.98L106.29 227.21C107.204 226.746 108.215 226.504 109.24 226.504C110.265 226.504 111.276 226.746 112.19 227.21L114.59 228.6C115.322 229.083 115.949 229.709 116.432 230.442C116.915 231.174 117.244 231.997 117.4 232.86Z" fill="#455A64"/>
<path d="M99.52 272.07L103.32 269.88V257.19L105.97 255.66L106.25 251.25L103.32 252.94V250.52C103.32 249.52 103.47 249.04 104.19 248.62L106.25 247.43V243L103.62 244.52C102.321 245.206 101.244 246.249 100.518 247.527C99.7915 248.804 99.4453 250.262 99.52 251.73V255.12L97.52 256.26V260.56L99.52 259.42V272.07Z" fill="white"/>
<path d="M206.93 298.05H144.93L151.34 342.05C151.83 345.27 154.2 348.41 158.47 350.88C168.11 356.45 183.75 356.45 193.39 350.88C197.99 348.23 200.39 344.79 200.58 341.31L206.93 298.05Z" fill="#37474F"/>
<path d="M200.31 304.47C186.85 312.24 165.02 312.24 151.56 304.47C149.139 303.114 146.96 301.367 145.11 299.3L146.67 310.06C148.403 311.963 150.428 313.576 152.67 314.84C165.5 322.24 186.29 322.24 199.12 314.84C201.367 313.572 203.393 311.947 205.12 310.03L206.7 299.31C204.869 301.37 202.71 303.114 200.31 304.47Z" fill="#263238"/>
<path d="M151.33 342.09C151.82 345.31 154.19 348.46 158.46 350.92C165.35 354.92 175.3 356.02 183.93 354.31C168.44 355.49 157.81 348.72 156.21 342.48C154.61 336.24 152.59 305.64 152.59 305.64L154.3 298.72L153.82 298.05H144.91L151.33 342.09Z" fill="#263238"/>
<path d="M210.16 290.15C209.805 291.881 209.1 293.521 208.09 294.97C206.061 297.84 203.399 300.204 200.31 301.88C186.85 309.65 165.02 309.65 151.56 301.88C148.471 300.204 145.809 297.84 143.78 294.97C142.777 293.518 142.076 291.879 141.72 290.15C140.52 284.31 143.81 278.22 151.57 273.74C165.03 265.96 186.86 265.96 200.32 273.74C208.07 278.22 211.36 284.31 210.16 290.15Z" fill="#455A64"/>
<path d="M208.09 295C206.061 297.87 203.399 300.234 200.31 301.91C186.85 309.68 165.02 309.68 151.56 301.91C148.471 300.234 145.809 297.87 143.78 295C142.777 293.548 142.076 291.909 141.72 290.18L143.25 300.69C143.95 304.92 147.1 309.04 152.72 312.28C165.55 319.68 186.34 319.68 199.17 312.28C204.71 309.08 207.86 305.01 208.61 300.84L208.69 300.3L210.17 290.18C209.812 291.911 209.104 293.551 208.09 295Z" fill="#37474F"/>
<path d="M196.25 276.08C185.03 269.6 166.84 269.6 155.63 276.08C149.28 279.75 146.53 284.7 147.36 289.48C148 293.15 150.76 296.72 155.63 299.48C166.84 305.96 185.03 305.96 196.25 299.48C201.11 296.67 203.87 293.1 204.51 289.48C205.35 284.7 202.6 279.75 196.25 276.08Z" fill="#37474F"/>
<path d="M149.25 293.92C150.935 296.239 153.114 298.155 155.63 299.53C166.84 306.01 185.03 306.01 196.25 299.53C198.758 298.152 200.93 296.236 202.61 293.92C202.53 290.04 199.93 286.18 194.81 283.21C184.38 277.21 167.48 277.21 157.07 283.21C151.94 286.18 149.34 290 149.25 293.92Z" fill="#E0E0E0"/>
<path d="M179.75 287.82C176.36 276.2 178.07 264.42 178.07 256.22C178.07 248.8 176.51 239.4 175.48 239.5C174.45 239.6 175.48 246.7 174.39 256.39C173.94 260.29 170.39 277.25 171.57 288.39C171.648 288.703 171.794 288.996 171.998 289.247C172.202 289.497 172.459 289.7 172.75 289.84C173.655 290.299 174.655 290.538 175.67 290.538C176.685 290.538 177.685 290.299 178.59 289.84C178.88 289.698 179.136 289.495 179.339 289.245C179.543 288.994 179.69 288.703 179.77 288.39C179.808 288.201 179.802 288.006 179.75 287.82Z" fill="#0752F7"/>
<path opacity="0.1" d="M179.75 287.82C176.36 276.2 178.07 264.42 178.07 256.22C178.07 248.8 176.51 239.4 175.48 239.5C174.45 239.6 175.48 246.7 174.39 256.39C173.94 260.29 170.39 277.25 171.57 288.39C171.648 288.703 171.794 288.996 171.998 289.247C172.202 289.497 172.459 289.7 172.75 289.84C173.655 290.299 174.655 290.538 175.67 290.538C176.685 290.538 177.685 290.299 178.59 289.84C178.88 289.698 179.136 289.495 179.339 289.245C179.543 288.994 179.69 288.703 179.77 288.39C179.808 288.201 179.802 288.006 179.75 287.82Z" fill="black"/>
<path d="M178.47 265.06C178.5 262.952 179.067 260.886 180.117 259.058C181.166 257.23 182.665 255.699 184.47 254.61C191.3 250.43 199.79 256.02 200.15 257.01C200.51 258 198.93 262.31 195.67 264.54C192.41 266.77 185.47 270 178.47 265.06Z" fill="#0752F7"/>
<path opacity="0.1" d="M200.15 257C196.15 255.872 191.894 256.044 187.998 257.491C184.101 258.938 180.765 261.585 178.47 265.05C178.501 262.941 179.068 260.874 180.118 259.044C181.167 257.215 182.665 255.682 184.47 254.59C191.3 250.42 199.79 256 200.15 257Z" fill="black"/>
<path d="M172.75 262.23C171.927 259.997 170.529 258.02 168.698 256.499C166.867 254.979 164.667 253.968 162.32 253.57C154.17 252.19 148.76 257.23 148.73 258.83C148.7 260.43 149.49 260.83 152.53 263.22C155.57 265.61 159.92 268.83 165.05 268.09C166.728 267.855 168.317 267.192 169.666 266.166C171.014 265.14 172.076 263.785 172.75 262.23Z" fill="#0752F7"/>
<path opacity="0.15" d="M172.75 262.23C171.927 259.997 170.529 258.02 168.698 256.499C166.867 254.979 164.667 253.968 162.32 253.57C154.17 252.19 148.76 257.23 148.73 258.83C152.16 256.66 165.55 254.16 172.75 262.23Z" fill="black"/>
<path d="M172.75 262.23C165.55 254.16 152.16 256.66 148.75 258.84C148.75 257.23 154.2 252.19 162.35 253.57C164.691 253.973 166.885 254.986 168.711 256.506C170.536 258.026 171.929 260.001 172.75 262.23Z" fill="#0752F7"/>
<path opacity="0.1" d="M172.75 262.23C165.55 254.16 152.16 256.66 148.75 258.84C148.75 257.23 154.2 252.19 162.35 253.57C164.691 253.973 166.885 254.986 168.711 256.506C170.536 258.026 171.929 260.001 172.75 262.23Z" fill="black"/>
<path d="M175 233.55L170.33 224.76L174.09 213.89V207.24L162.57 213.89V220.54L167.52 229.12C167.602 229.25 167.72 229.354 167.86 229.42L175 233.55Z" fill="#263238"/>
<path d="M194.37 171.93C194.307 170.729 193.962 169.56 193.362 168.518C192.763 167.475 191.926 166.589 190.92 165.93L188.1 164.31C187.032 163.762 185.85 163.477 184.65 163.477C183.45 163.477 182.268 163.762 181.2 164.31L151.2 181.61C150.191 182.266 149.351 183.152 148.75 184.195C148.149 185.238 147.803 186.408 147.74 187.61V222.23C147.804 223.432 148.151 224.601 148.752 225.644C149.353 226.687 150.192 227.573 151.2 228.23L154.01 229.85C155.081 230.392 156.265 230.675 157.465 230.675C158.665 230.675 159.849 230.392 160.92 229.85L169.76 224.74L174.76 233.3C174.829 233.423 174.933 233.524 175.059 233.59C175.184 233.655 175.326 233.683 175.467 233.669C175.608 233.655 175.742 233.601 175.853 233.512C175.963 233.423 176.046 233.305 176.09 233.17L181.31 218.1L190.94 212.54C191.947 211.883 192.785 210.996 193.384 209.954C193.984 208.911 194.329 207.741 194.39 206.54L194.37 171.93Z" fill="#37474F"/>
<path d="M147.77 222.23C147.834 223.432 148.181 224.601 148.782 225.644C149.383 226.687 150.222 227.573 151.23 228.23L154.04 229.85C155.015 230.338 156.081 230.615 157.17 230.663C158.259 230.711 159.346 230.53 160.36 230.13C158.73 230.74 157.49 229.82 157.49 227.85V193.22C157.53 192.02 157.874 190.85 158.49 189.82L148.78 184.21C148.161 185.239 147.816 186.41 147.78 187.61L147.77 222.23Z" fill="#263238"/>
<path d="M194.26 171C193.85 169.53 192.52 169.07 190.92 170L160.92 187.31C159.899 187.943 159.061 188.833 158.49 189.89L148.78 184.29C149.351 183.233 150.189 182.343 151.21 181.71L181.21 164.4C182.281 163.858 183.465 163.575 184.665 163.575C185.865 163.575 187.049 163.858 188.12 164.4L190.94 166.02C191.8 166.583 192.538 167.315 193.109 168.171C193.679 169.027 194.071 169.989 194.26 171Z" fill="#455A64"/>
<path d="M176.28 188.71C179.01 187.14 179.34 186.96 180.41 186.41C180.989 186.062 181.638 185.846 182.31 185.78C182.733 185.734 183.157 185.856 183.49 186.12C183.859 186.404 184.126 186.801 184.25 187.25C184.492 188.003 184.61 188.79 184.6 189.58C184.65 190.99 184.66 191.41 184.66 195.05C184.66 198.69 184.66 199.13 184.6 200.59C184.588 201.514 184.47 202.433 184.25 203.33C184.086 204.027 183.83 204.7 183.49 205.33C183.174 205.947 182.777 206.518 182.31 207.03C181.753 207.636 181.113 208.161 180.41 208.59C179.34 209.28 179.01 209.48 176.28 211.06C173.55 212.64 173.23 212.81 172.15 213.36C171.571 213.708 170.922 213.924 170.25 213.99C169.827 214.036 169.403 213.914 169.07 213.65C168.707 213.36 168.442 212.966 168.31 212.52C168.069 211.771 167.951 210.987 167.96 210.2C167.91 208.79 167.9 208.36 167.9 204.72C167.9 201.08 167.9 200.64 167.96 199.18C167.972 198.256 168.09 197.337 168.31 196.44C168.485 195.746 168.74 195.075 169.07 194.44C169.386 193.823 169.783 193.252 170.25 192.74C170.807 192.134 171.447 191.609 172.15 191.18C173.23 190.49 173.55 190.29 176.28 188.71ZM176.28 186.26C173.5 187.86 173.16 188.08 172.07 188.77C170.235 189.91 168.747 191.533 167.77 193.46C167.249 194.437 166.853 195.475 166.59 196.55C166.305 197.726 166.147 198.93 166.12 200.14C166.07 201.62 166.06 202.14 166.06 205.79C166.06 209.44 166.06 209.95 166.12 211.38C166.126 212.398 166.285 213.409 166.59 214.38C166.796 215.064 167.208 215.669 167.77 216.11C168.284 216.511 168.931 216.7 169.58 216.64C170.457 216.553 171.306 216.28 172.07 215.84C173.16 215.27 173.5 215.09 176.28 213.49C179.06 211.89 179.41 211.66 180.5 210.97C181.416 210.395 182.25 209.699 182.98 208.9C183.699 208.112 184.308 207.231 184.79 206.28C185.311 205.303 185.707 204.265 185.97 203.19C186.259 202.014 186.42 200.81 186.45 199.6C186.45 198.12 186.51 197.65 186.51 193.95C186.51 190.25 186.51 189.79 186.45 188.36C186.444 187.341 186.282 186.33 185.97 185.36C185.767 184.672 185.354 184.064 184.79 183.62C184.275 183.223 183.627 183.037 182.98 183.1C182.105 183.179 181.259 183.448 180.5 183.89C179.41 184.46 179.06 184.64 176.28 186.25" fill="white"/>
<path d="M176.28 192.89C173.38 194.56 171.03 199.06 171.03 202.89C171.03 206.72 173.38 208.54 176.28 206.89C179.18 205.24 181.53 200.73 181.53 196.89C181.53 193.05 179.18 191.25 176.28 192.89ZM176.28 204.44C174.4 205.52 172.87 204.37 172.87 201.86C172.89 200.584 173.208 199.33 173.801 198.199C174.393 197.069 175.242 196.093 176.28 195.35C178.16 194.26 179.69 195.41 179.69 197.92C179.67 199.197 179.351 200.452 178.758 201.584C178.166 202.717 177.318 203.694 176.28 204.44Z" fill="white"/>
<path d="M183 188.75C182.994 189.211 182.88 189.664 182.666 190.072C182.452 190.48 182.145 190.833 181.77 191.1C181.09 191.49 180.54 191.1 180.54 190.17C180.547 189.711 180.662 189.26 180.876 188.853C181.09 188.447 181.396 188.096 181.77 187.83C182.45 187.43 183 187.83 183 188.75Z" fill="white"/>
<path d="M280.05 255.83H218L224.41 299.88C224.9 303.1 227.27 306.24 231.54 308.7C241.18 314.27 256.82 314.27 266.46 308.7C271.06 306.05 273.46 302.61 273.65 299.14L280.05 255.83Z" fill="#37474F"/>
<path d="M273.42 262.26C259.96 270.03 238.13 270.03 224.67 262.26C222.249 260.904 220.07 259.158 218.22 257.09L219.79 267.84C221.519 269.749 223.545 271.367 225.79 272.63C238.62 280.03 259.41 280.03 272.24 272.63C274.486 271.361 276.513 269.737 278.24 267.82L279.81 257.1C277.979 259.16 275.82 260.904 273.42 262.26Z" fill="#263238"/>
<path d="M224.45 299.88C224.94 303.1 227.31 306.24 231.58 308.71C238.47 312.71 248.41 313.81 257.05 312.1C241.56 313.28 230.92 306.51 229.33 300.27C227.74 294.03 225.7 263.43 225.7 263.43L227.42 256.51L226.93 255.84H218L224.45 299.88Z" fill="#263238"/>
<path d="M283.27 247.93C282.915 249.661 282.21 251.301 281.2 252.75C279.171 255.62 276.509 257.984 273.42 259.66C259.96 267.43 238.13 267.43 224.67 259.66C221.581 257.984 218.919 255.62 216.89 252.75C215.887 251.298 215.186 249.659 214.83 247.93C213.63 242.09 216.92 236 224.68 231.52C238.14 223.74 259.97 223.74 273.43 231.52C281.18 236 284.47 242.09 283.27 247.93Z" fill="#455A64"/>
<path d="M281.2 252.75C279.171 255.62 276.509 257.984 273.42 259.66C259.96 267.43 238.13 267.43 224.67 259.66C221.581 257.984 218.919 255.62 216.89 252.75C215.887 251.298 215.186 249.659 214.83 247.93L216.36 258.44C217.06 262.67 220.21 266.79 225.83 270.03C238.66 277.43 259.45 277.43 272.28 270.03C277.82 266.83 280.97 262.76 281.72 258.59L281.8 258.05L283.28 247.93C282.922 249.661 282.214 251.301 281.2 252.75Z" fill="#37474F"/>
<path d="M269.36 233.86C258.14 227.38 239.95 227.38 228.74 233.86C222.39 237.53 219.64 242.48 220.47 247.26C221.11 250.93 223.87 254.5 228.74 257.31C239.95 263.79 258.14 263.79 269.36 257.31C274.22 254.5 276.98 250.93 277.62 247.31C278.46 242.48 275.71 237.53 269.36 233.86Z" fill="#37474F"/>
<path d="M222.37 251.7C224.049 254.021 226.225 255.938 228.74 257.31C239.95 263.79 258.14 263.79 269.36 257.31C271.875 255.938 274.051 254.021 275.73 251.7C275.65 247.82 273.05 243.96 267.92 241C257.5 235 240.6 235 230.18 241C225.05 244 222.45 247.83 222.37 251.7Z" fill="#E0E0E0"/>
<path d="M251.36 225C251.39 222.829 251.974 220.702 253.055 218.819C254.137 216.936 255.68 215.36 257.54 214.24C264.54 209.93 273.3 215.68 273.67 216.71C274.04 217.74 272.42 222.17 269.07 224.46C265.72 226.75 258.57 230.13 251.36 225Z" fill="#0752F7"/>
<path opacity="0.1" d="M273.68 216.74C269.566 215.574 265.188 215.746 261.178 217.231C257.167 218.715 253.733 221.436 251.37 225C251.398 222.83 251.98 220.703 253.06 218.82C254.139 216.937 255.681 215.361 257.54 214.24C264.56 210 273.3 215.71 273.68 216.74Z" fill="black"/>
<path d="M252.6 245.63C249.24 234.14 250.44 220.76 251.37 213.78C253.02 201.38 252.37 194.55 251.37 190.3C249.79 183.57 248.37 180.2 247.37 180.52C246.37 180.84 246.92 184.32 247.55 190.83C248.35 199.05 247.19 206.23 245.73 215.05C243.998 225.339 243.575 235.805 244.47 246.2C244.549 246.511 244.696 246.8 244.9 247.047C245.104 247.295 245.36 247.494 245.65 247.63C246.544 248.083 247.533 248.32 248.535 248.32C249.537 248.32 250.526 248.083 251.42 247.63C251.708 247.492 251.962 247.292 252.164 247.045C252.366 246.798 252.512 246.509 252.59 246.2C252.638 246.013 252.642 245.818 252.6 245.63Z" fill="#0752F7"/>
<path opacity="0.1" d="M252.6 245.63C249.24 234.14 250.44 220.76 251.37 213.78C253.02 201.38 252.37 194.55 251.37 190.3C249.79 183.57 248.37 180.2 247.37 180.52C246.37 180.84 246.92 184.32 247.55 190.83C248.35 199.05 247.19 206.23 245.73 215.05C243.998 225.339 243.575 235.805 244.47 246.2C244.549 246.511 244.696 246.8 244.9 247.047C245.104 247.295 245.36 247.494 245.65 247.63C246.544 248.083 247.533 248.32 248.535 248.32C249.537 248.32 250.526 248.083 251.42 247.63C251.708 247.492 251.962 247.292 252.164 247.045C252.366 246.798 252.512 246.509 252.59 246.2C252.638 246.013 252.642 245.818 252.6 245.63Z" fill="black"/>
<path d="M243.92 222.27C243.074 219.972 241.636 217.938 239.752 216.373C237.868 214.808 235.605 213.769 233.19 213.36C224.8 211.94 219.19 217.12 219.19 218.77C219.19 220.42 219.97 220.77 223.1 223.28C226.23 225.79 230.7 229.06 235.98 228.28C237.707 228.04 239.343 227.362 240.733 226.31C242.123 225.258 243.22 223.867 243.92 222.27Z" fill="#0752F7"/>
<path opacity="0.15" d="M243.92 222.27C243.074 219.972 241.636 217.938 239.752 216.373C237.868 214.808 235.605 213.769 233.19 213.36C224.8 211.94 219.19 217.12 219.19 218.77C222.73 216.54 236.51 214 243.92 222.27Z" fill="black"/>
<path d="M243.92 222.27C236.51 213.96 222.73 216.54 219.2 218.78C219.2 217.12 224.8 211.94 233.2 213.36C235.613 213.771 237.874 214.811 239.757 216.375C241.639 217.94 243.075 219.973 243.92 222.27Z" fill="#0752F7"/>
<path opacity="0.1" d="M243.92 222.27C236.51 213.96 222.73 216.54 219.2 218.78C219.2 217.12 224.8 211.94 233.2 213.36C235.613 213.771 237.874 214.811 239.757 216.375C241.639 217.94 243.075 219.973 243.92 222.27Z" fill="black"/>
<path d="M253.05 203.34C253.443 201.621 254.284 200.037 255.487 198.748C256.69 197.459 258.212 196.511 259.9 196C265.76 194.21 270.23 197.4 270.4 198.57C270.57 199.74 270.34 200.47 268.33 202.57C266.32 204.67 263.54 206.7 259.69 206.65C258.397 206.681 257.116 206.396 255.959 205.819C254.802 205.242 253.803 204.391 253.05 203.34Z" fill="#0752F7"/>
<path opacity="0.15" d="M253.05 203.34C253.443 201.621 254.284 200.037 255.487 198.748C256.69 197.459 258.212 196.511 259.9 196C265.76 194.21 270.23 197.4 270.4 198.57C267.67 197.27 257.58 196.72 253.05 203.34Z" fill="black"/>
<path d="M253.05 203.34C257.58 196.71 267.67 197.27 270.4 198.55C270.23 197.36 265.76 194.18 259.89 195.97C258.201 196.485 256.678 197.438 255.476 198.733C254.275 200.027 253.438 201.617 253.05 203.34Z" fill="#0752F7"/>
<path opacity="0.1" d="M253.05 203.34C257.58 196.71 267.67 197.27 270.4 198.55C270.23 197.36 265.76 194.18 259.89 195.97C258.201 196.485 256.678 197.438 255.476 198.733C254.275 200.027 253.438 201.617 253.05 203.34Z" fill="black"/>
<path d="M246.87 201.76C246.87 201.76 245.41 196.15 240.71 194.16C236.01 192.17 230.93 193.16 230.11 194.38C229.29 195.6 231.34 201.24 235.96 203.31C241.67 205.87 246.46 203.26 246.87 201.76Z" fill="#0752F7"/>
<path opacity="0.1" d="M246.87 201.76C240.22 195.76 230.11 194.37 230.11 194.37C230.93 193.14 235.91 192.13 240.71 194.17C245.3 196.1 246.79 201.49 246.87 201.76Z" fill="black"/>
<path d="M249.93 173L245.08 163.89L248.98 152.64V145.76L237.06 152.64V159.53L242.18 168.41C242.263 168.546 242.385 168.654 242.53 168.72L249.93 173Z" fill="#263238"/>
<path d="M270 109.23C269.933 107.989 269.574 106.782 268.952 105.706C268.329 104.63 267.462 103.717 266.42 103.04L263.51 101.36C262.404 100.793 261.178 100.497 259.935 100.497C258.692 100.497 257.466 100.793 256.36 101.36L225.36 119.27C224.32 119.949 223.455 120.863 222.835 121.938C222.215 123.014 221.857 124.22 221.79 125.46V161.31C221.857 162.55 222.215 163.756 222.835 164.832C223.455 165.907 224.32 166.821 225.36 167.5L228.27 169.18C229.378 169.742 230.603 170.035 231.845 170.035C233.087 170.035 234.312 169.742 235.42 169.18L244.58 163.89L249.7 172.76C249.773 172.887 249.882 172.99 250.012 173.057C250.142 173.124 250.289 173.152 250.435 173.137C250.581 173.122 250.72 173.065 250.834 172.974C250.948 172.882 251.034 172.759 251.08 172.62L256.45 157L266.45 151.26C267.492 150.581 268.36 149.665 268.982 148.588C269.604 147.511 269.963 146.302 270.03 145.06L270 109.23Z" fill="#37474F"/>
<path d="M221.75 161.31C221.817 162.55 222.175 163.756 222.795 164.832C223.415 165.907 224.28 166.821 225.32 167.5L228.23 169.18C229.238 169.687 230.342 169.975 231.469 170.025C232.596 170.075 233.721 169.886 234.77 169.47C233.09 170.11 231.77 169.16 231.77 167.12V131.27C231.802 130.031 232.146 128.82 232.77 127.75L222.71 121.94C222.086 123.01 221.742 124.221 221.71 125.46L221.75 161.31Z" fill="#263238"/>
<path d="M269.87 108.21C269.45 106.69 268.07 106.21 266.42 107.21L235.42 125.13C234.364 125.788 233.496 126.708 232.9 127.8L222.8 122C223.396 120.908 224.264 119.988 225.32 119.33L256.32 101.41C257.43 100.848 258.656 100.555 259.9 100.555C261.144 100.555 262.37 100.848 263.48 101.41L266.4 103.09C267.293 103.667 268.06 104.417 268.656 105.297C269.252 106.176 269.665 107.167 269.87 108.21Z" fill="#455A64"/>
<path d="M256.83 140.89C258.679 136.768 259.62 132.297 259.59 127.78C260.498 126.382 261.259 124.894 261.86 123.34C261.084 124.254 260.208 125.079 259.25 125.8C260.221 124.454 260.902 122.922 261.25 121.3C260.416 122.455 259.445 123.506 258.36 124.43C257.883 124.071 257.302 123.876 256.705 123.876C256.108 123.876 255.527 124.071 255.05 124.43C252.12 126.12 249.97 131.01 250.63 134.43C246.85 136.36 243.51 135.88 241.27 133.51C240.08 136.92 240.65 140.15 242.67 140.78C242.068 141.136 241.366 141.287 240.67 141.21C240.62 144.05 242.12 145.8 244.31 145.12C243.743 145.687 243.061 146.127 242.31 146.41C242.89 148.48 244.56 149.26 246.55 148.16C245.007 150.92 242.664 153.148 239.83 154.55C241.024 154.817 242.26 154.84 243.463 154.616C244.666 154.393 245.811 153.928 246.83 153.25C251.32 150.66 254.77 145.98 256.97 140.9" fill="#F5F5F5"/>
<path d="M86.51 199.84V216.73L89.72 214.88C90.35 214.52 90.62 214.81 90.62 215.88V216.39C90.6811 216.775 90.6285 217.169 90.4686 217.524C90.3087 217.88 90.0485 218.18 89.72 218.39L78.09 225.11C77.46 225.47 77.19 225.18 77.19 224.11V223.6C77.1289 223.215 77.1815 222.821 77.3414 222.466C77.5013 222.11 77.7615 221.809 78.09 221.6L82.09 219.29V205.83L78 208.78C77.23 209.23 77 207.65 77 206.78C77.0216 206.518 77.1044 206.265 77.2416 206.041C77.3788 205.817 77.5666 205.628 77.79 205.49L85.25 199.79C85.76 199.56 86.51 199.48 86.51 199.84Z" fill="#455A64"/>
<path d="M108.92 186.69C108.896 186.961 108.814 187.223 108.68 187.46L102.89 199.69L109.46 205.97C109.532 206.03 109.591 206.105 109.632 206.189C109.673 206.274 109.697 206.366 109.7 206.46C109.7 206.73 109.19 207.21 108.02 207.88L106.28 208.88C105.41 209.38 104.72 209.66 104.45 209.36L98.81 203.5L98.69 203.6V212.3C98.69 212.93 98.15 213.57 96.89 214.3L95.89 214.9C94.63 215.63 94.09 215.61 94.09 214.98V195.78C94.09 195.15 94.63 194.51 95.89 193.78L96.89 193.17C98.15 192.44 98.69 192.46 98.69 193.09V201.09H98.81L104 189.64C104.423 188.934 105.051 188.372 105.8 188.03L107.21 187.21C108.41 186.54 108.92 186.43 108.92 186.69Z" fill="#455A64"/>
<path d="M159.69 138.78V139.59C159.727 139.934 159.661 140.28 159.5 140.586C159.34 140.892 159.093 141.144 158.79 141.31L152.73 144.81L152.43 149.27L153.21 148.82C157.74 146.21 160.74 146.03 160.74 151.19C160.74 156.35 156.69 160.25 153.06 162.35C149.67 164.35 147.18 164.78 147.18 163.58C147.18 163.04 148.11 160.67 148.8 160.28C150.286 160.067 151.72 159.583 153.03 158.85C153.95 158.378 154.73 157.674 155.293 156.808C155.856 155.941 156.183 154.942 156.24 153.91C156.24 151.81 155.24 151.15 152.49 152.75L149.22 154.63C148.35 155.14 148.11 154.91 148.11 154.07L148.68 144.84C148.686 144.432 148.808 144.034 149.031 143.693C149.254 143.351 149.569 143.08 149.94 142.91L158.79 137.8C159.42 137.44 159.69 137.73 159.69 138.78Z" fill="#455A64"/>
<path d="M179 126.5C178.973 126.77 178.891 127.032 178.76 127.27L173 139.49L179.57 145.78C179.643 145.839 179.702 145.914 179.744 145.999C179.785 146.083 179.808 146.176 179.81 146.27C179.81 146.54 179.3 147.01 178.13 147.69L176.39 148.69C175.52 149.19 174.83 149.47 174.56 149.18L168.92 143.31L168.8 143.41V152.11C168.8 152.74 168.26 153.38 167 154.11L166 154.72C164.74 155.45 164.2 155.43 164.2 154.8V135.6C164.2 134.97 164.74 134.33 166 133.6L167 132.99C168.26 132.27 168.8 132.28 168.8 132.91V140.91H168.92L174.14 129.44C174.563 128.734 175.191 128.172 175.94 127.83L177.35 127.02C178.53 126.34 179 126.23 179 126.5Z" fill="#455A64"/>
<path d="M221.72 81.23V98.12L224.93 96.27C225.56 95.9 225.83 96.2 225.83 97.27V97.78C225.891 98.1648 225.838 98.559 225.679 98.9143C225.519 99.2696 225.259 99.5705 224.93 99.78L213.29 106.5C212.66 106.86 212.39 106.57 212.39 105.5V105C212.329 104.615 212.382 104.221 212.541 103.866C212.701 103.51 212.961 103.209 213.29 103L217.29 100.69V87.22L213.21 90.22C212.43 90.67 212.21 89.09 212.21 88.22C212.231 87.9593 212.313 87.707 212.448 87.4832C212.584 87.2593 212.769 87.07 212.99 86.93L220.46 81.24C221 80.94 221.72 80.87 221.72 81.23Z" fill="#455A64"/>
<path d="M242.3 79.25C242.3 86 239.63 91.53 235.19 94.09C230.75 96.65 228.08 94.21 228.08 87.46C228.08 80.71 230.75 75.18 235.19 72.62C239.63 70.06 242.3 72.5 242.3 79.25ZM232.58 84.86C232.58 89.63 233.51 91.56 235.19 90.58C236.87 89.6 237.8 86.58 237.8 81.85C237.8 77.12 236.87 75.15 235.19 76.13C233.51 77.11 232.58 80.09 232.58 84.86Z" fill="#455A64"/>
<path d="M260.18 58.82C260.153 59.0903 260.071 59.3523 259.94 59.59L254.15 71.81L260.72 78.1C260.793 78.1594 260.852 78.234 260.894 78.3186C260.935 78.4032 260.958 78.4958 260.96 78.59C260.96 78.86 260.45 79.33 259.28 80.01L257.54 81.01C256.67 81.51 255.98 81.79 255.71 81.5L250.07 75.63L249.95 75.73V84.43C249.95 85.06 249.41 85.7 248.15 86.43L247.1 87C245.84 87.72 245.3 87.71 245.3 87.08V67.92C245.3 67.29 245.84 66.65 247.1 65.92L248.15 65.31C249.41 64.58 249.95 64.6 249.95 65.23V73.23H250.07L255.29 61.76C255.713 61.0536 256.341 60.4922 257.09 60.15L258.5 59.34C259.67 58.66 260.18 58.55 260.18 58.82Z" fill="#455A64"/>
<path d="M374 161.31C374.12 166.72 370.16 172.4 364.72 182.06C360.92 188.81 357.16 193.6 352.25 200.62C351.04 202.35 350.16 203.69 347.8 206.99C346.91 208.41 345.815 209.69 344.55 210.79C342.899 212.044 341.078 213.054 339.14 213.79C336.69 214.749 334.026 215.029 331.43 214.6C330.381 214.436 329.367 214.098 328.43 213.6C332.82 212.807 336.963 210.999 340.53 208.32C344.44 205.2 345.88 201.6 345.04 198.42L344.5 196.31L344.67 196.09C344.72 196.01 344.8 195.91 344.89 195.79L345.31 195.18C345.45 194.98 345.6 194.74 345.76 194.48L346.27 193.61C347.818 190.878 348.944 187.928 349.61 184.86C349.73 184.3 349.83 183.72 349.91 183.11C350.71 181.32 351.52 179.49 352.33 177.77C354.895 172.331 356.867 166.632 358.21 160.77C358.21 160.77 351.75 136.5 352.77 130.91C354.04 123.91 359.29 122.57 363.91 122.3L366.04 124.83C368.38 132.11 373.62 143.81 374 161.31Z" fill="#F28F8F"/>
<path d="M344.58 196.36L341.81 194.1C343.956 191.129 345.452 187.738 346.2 184.15C347.59 177.78 345.71 169.46 342.61 168.24C339.32 166.96 335.78 169.98 335.74 170.01L333.37 167.34C333.58 167.15 338.56 162.82 343.91 164.92C349.7 167.19 351.17 178.09 349.69 184.92C348.83 189.057 347.087 192.959 344.58 196.36Z" fill="#0752F7"/>
<path opacity="0.1" d="M345 188.12C344.227 190.263 343.149 192.284 341.8 194.12L344.57 196.38C345.224 195.524 345.816 194.621 346.34 193.68C346 192.11 345.52 190.19 345 188.12Z" fill="black"/>
<path opacity="0.1" d="M337.55 165C336.027 165.544 334.612 166.353 333.37 167.39L335.74 170.06C336.906 169.102 338.273 168.418 339.74 168.06C339.191 166.922 338.45 165.887 337.55 165Z" fill="black"/>
<path d="M345.06 198.43L337.58 169.43C336.99 167.12 334.98 165.07 331.58 163.75C324.28 160.89 313.38 162.53 307.24 167.43C304.41 169.69 303.11 172.24 303.24 174.62L304.65 204.48C304.79 207.76 307.24 210.77 311.89 212.59C320.49 215.96 333.32 214.02 340.54 208.26C344.46 205.2 345.9 201.61 345.06 198.43Z" fill="#0752F7"/>
<path opacity="0.1" d="M330.51 176.57C325.87 180.28 317.64 181.57 312.1 179.36C306.56 177.15 305.86 172.43 310.5 168.73C315.14 165.03 323.38 163.79 328.91 165.95C334.44 168.11 335.15 172.88 330.51 176.57Z" fill="black"/>
<path opacity="0.2" d="M314 211.47C315.514 210.048 316.527 208.174 316.888 206.128C317.248 204.082 316.937 201.974 316 200.12C316 200.12 318.81 203.66 317.63 207.21C316.45 210.76 314 211.47 314 211.47Z" fill="black"/>
<path opacity="0.4" d="M331.61 163.79C324.31 160.93 313.41 162.57 307.27 167.47C301.13 172.37 302.09 178.66 309.39 181.52C316.69 184.38 327.6 182.74 333.74 177.84C339.88 172.94 338.93 166.65 331.61 163.79ZM330.51 176.57C325.87 180.28 317.64 181.57 312.1 179.36C306.56 177.15 305.86 172.43 310.5 168.73C315.14 165.03 323.38 163.79 328.91 165.95C334.44 168.11 335.15 172.88 330.51 176.57Z" fill="white"/>
<path d="M313.75 197.77C313.75 197.77 312.08 196.48 304.33 195.24C301.97 194.87 298.33 194.5 296.98 194.13C295.63 193.76 295.13 192.06 293.93 190.72C292.759 189.476 291.227 188.629 289.55 188.3L286.55 203.86C288.301 204.253 290.133 204.067 291.77 203.33C294.68 202.2 295.77 201.71 296.86 202.23C298.046 202.852 299.151 203.617 300.15 204.51C303.27 207.37 307.66 211 311.87 212.65C317.33 210.89 319.33 201.46 313.75 197.77Z" fill="#0752F7"/>
<path d="M293.452 196.755C294.015 192.401 291.981 188.549 288.908 188.151C285.836 187.754 282.888 190.962 282.325 195.316C281.762 199.67 283.796 203.523 286.869 203.92C289.942 204.317 292.889 201.11 293.452 196.755Z" fill="#0752F7"/>
<path opacity="0.1" d="M317.06 204.27C317.06 207.9 315.06 211.61 311.9 212.65C307.69 211 303.3 207.37 300.18 204.52C299.182 203.623 298.077 202.854 296.89 202.23C295.79 201.71 294.71 202.23 291.8 203.33C290.176 204.046 288.369 204.238 286.63 203.88C287.464 204.002 288.315 203.904 289.099 203.595C289.883 203.286 290.573 202.778 291.1 202.12C292.033 201.081 292.717 199.843 293.1 198.5C294.031 198.816 294.993 199.031 295.97 199.14C298.64 199.54 300.87 201.69 303.97 203.92C307.07 206.15 310.49 208.77 313.49 208.18C314.45 208.053 315.335 207.592 315.988 206.876C316.642 206.161 317.021 205.238 317.06 204.27Z" fill="black"/>
<path opacity="0.05" d="M293.452 196.755C294.015 192.401 291.981 188.549 288.908 188.151C285.836 187.754 282.888 190.962 282.325 195.316C281.762 199.67 283.796 203.523 286.869 203.92C289.942 204.317 292.889 201.11 293.452 196.755Z" fill="black"/>
<g opacity="0.1">
<path opacity="0.1" d="M289 192C289.183 191.785 289.3 191.521 289.338 191.241C289.375 190.961 289.331 190.676 289.21 190.42C289.166 190.314 289.095 190.222 289.003 190.153C288.912 190.083 288.804 190.039 288.691 190.025C288.577 190.011 288.461 190.027 288.356 190.072C288.251 190.116 288.159 190.188 288.09 190.28C287.907 190.495 287.79 190.759 287.752 191.039C287.715 191.319 287.759 191.604 287.88 191.86C287.924 191.966 287.995 192.058 288.087 192.127C288.178 192.197 288.286 192.241 288.399 192.255C288.513 192.269 288.629 192.253 288.734 192.208C288.839 192.164 288.931 192.092 289 192Z" fill="black"/>
<path opacity="0.1" d="M288.51 195.28C288.692 195.064 288.807 194.8 288.842 194.519C288.878 194.239 288.832 193.955 288.71 193.7C288.667 193.594 288.597 193.501 288.507 193.432C288.417 193.362 288.309 193.318 288.196 193.303C288.083 193.289 287.968 193.305 287.863 193.351C287.758 193.396 287.667 193.468 287.6 193.56C287.417 193.775 287.3 194.039 287.262 194.319C287.225 194.599 287.269 194.884 287.39 195.14C287.432 195.248 287.502 195.343 287.593 195.414C287.684 195.486 287.793 195.531 287.908 195.546C288.023 195.56 288.14 195.543 288.246 195.496C288.352 195.449 288.443 195.375 288.51 195.28Z" fill="black"/>
<path opacity="0.1" d="M288 198.54C288.181 198.322 288.297 198.056 288.332 197.774C288.367 197.492 288.322 197.207 288.2 196.95C288.157 196.844 288.087 196.751 287.997 196.682C287.907 196.612 287.799 196.568 287.686 196.553C287.573 196.539 287.458 196.555 287.353 196.601C287.248 196.646 287.157 196.718 287.09 196.81C286.907 197.025 286.79 197.289 286.752 197.569C286.715 197.849 286.759 198.134 286.88 198.39C286.923 198.496 286.993 198.59 287.084 198.66C287.175 198.73 287.283 198.775 287.396 198.791C287.51 198.806 287.626 198.791 287.732 198.747C287.838 198.703 287.93 198.631 288 198.54Z" fill="black"/>
<path opacity="0.1" d="M287.57 201.79C287.749 201.57 287.863 201.305 287.898 201.024C287.934 200.743 287.889 200.457 287.77 200.2C287.727 200.094 287.657 200.001 287.567 199.932C287.477 199.862 287.369 199.818 287.256 199.803C287.143 199.789 287.028 199.805 286.923 199.851C286.818 199.896 286.727 199.968 286.66 200.06C286.477 200.275 286.36 200.539 286.322 200.819C286.285 201.099 286.329 201.384 286.45 201.64C286.493 201.746 286.563 201.84 286.654 201.91C286.745 201.98 286.853 202.025 286.966 202.041C287.08 202.056 287.196 202.041 287.302 201.997C287.408 201.953 287.5 201.881 287.57 201.79Z" fill="black"/>
<path opacity="0.1" d="M291.25 193.93C291.429 193.713 291.543 193.449 291.579 193.169C291.614 192.889 291.57 192.605 291.45 192.35C291.407 192.244 291.337 192.15 291.246 192.08C291.155 192.01 291.047 191.965 290.934 191.949C290.82 191.934 290.704 191.949 290.598 191.993C290.492 192.037 290.399 192.109 290.33 192.2C290.151 192.417 290.037 192.681 290.001 192.961C289.966 193.241 290.01 193.525 290.13 193.78C290.173 193.886 290.243 193.98 290.334 194.05C290.425 194.12 290.533 194.166 290.646 194.181C290.76 194.196 290.876 194.181 290.982 194.137C291.088 194.093 291.18 194.021 291.25 193.93Z" fill="black"/>
<path opacity="0.1" d="M286.29 193.35C286.473 193.135 286.59 192.871 286.628 192.591C286.665 192.311 286.621 192.026 286.5 191.77C286.457 191.664 286.387 191.57 286.296 191.5C286.205 191.43 286.097 191.385 285.984 191.369C285.87 191.354 285.754 191.369 285.648 191.413C285.542 191.457 285.45 191.529 285.38 191.62C285.196 191.835 285.079 192.099 285.044 192.38C285.008 192.661 285.056 192.946 285.18 193.2C285.221 193.307 285.291 193.4 285.381 193.471C285.47 193.542 285.577 193.587 285.691 193.602C285.804 193.618 285.919 193.602 286.025 193.558C286.13 193.514 286.222 193.442 286.29 193.35Z" fill="black"/>
<path opacity="0.1" d="M290.7 197.21C290.883 196.995 291 196.731 291.038 196.451C291.075 196.171 291.031 195.886 290.91 195.63C290.867 195.524 290.797 195.43 290.706 195.36C290.615 195.29 290.507 195.245 290.394 195.229C290.28 195.214 290.164 195.229 290.058 195.273C289.952 195.317 289.86 195.389 289.79 195.48C289.607 195.695 289.49 195.959 289.452 196.239C289.415 196.519 289.459 196.804 289.58 197.06C289.623 197.166 289.693 197.26 289.784 197.33C289.875 197.4 289.983 197.445 290.096 197.461C290.21 197.476 290.326 197.461 290.432 197.417C290.538 197.373 290.631 197.301 290.7 197.21Z" fill="black"/>
<path opacity="0.1" d="M285.75 196.63C285.929 196.413 286.043 196.149 286.079 195.869C286.114 195.589 286.07 195.305 285.95 195.05C285.907 194.944 285.837 194.85 285.746 194.78C285.655 194.71 285.547 194.665 285.434 194.649C285.32 194.634 285.204 194.649 285.098 194.693C284.992 194.737 284.899 194.809 284.83 194.9C284.651 195.117 284.537 195.381 284.501 195.661C284.466 195.941 284.51 196.225 284.63 196.48C284.673 196.586 284.743 196.68 284.834 196.75C284.925 196.82 285.033 196.866 285.146 196.881C285.26 196.896 285.376 196.881 285.482 196.837C285.588 196.793 285.68 196.721 285.75 196.63Z" fill="black"/>
<path opacity="0.1" d="M290.16 200.49C290.339 200.27 290.453 200.005 290.488 199.724C290.524 199.443 290.479 199.157 290.36 198.9C290.316 198.794 290.245 198.702 290.153 198.633C290.062 198.563 289.954 198.519 289.841 198.505C289.727 198.491 289.611 198.507 289.506 198.552C289.401 198.596 289.309 198.668 289.24 198.76C289.061 198.977 288.947 199.241 288.911 199.521C288.876 199.801 288.92 200.085 289.04 200.34C289.083 200.446 289.153 200.54 289.244 200.61C289.335 200.68 289.443 200.725 289.556 200.741C289.67 200.756 289.786 200.741 289.892 200.697C289.998 200.653 290.09 200.581 290.16 200.49Z" fill="black"/>
<path opacity="0.1" d="M285.2 199.91C285.383 199.693 285.5 199.427 285.537 199.146C285.574 198.864 285.53 198.578 285.41 198.32C285.366 198.214 285.295 198.122 285.203 198.053C285.112 197.983 285.004 197.939 284.891 197.925C284.777 197.911 284.661 197.927 284.556 197.972C284.451 198.017 284.359 198.088 284.29 198.18C284.107 198.395 283.99 198.659 283.952 198.939C283.915 199.219 283.959 199.504 284.08 199.76C284.123 199.866 284.193 199.96 284.284 200.03C284.375 200.1 284.483 200.146 284.596 200.161C284.71 200.176 284.826 200.161 284.932 200.117C285.038 200.073 285.131 200.001 285.2 199.91Z" fill="black"/>
</g>
<path d="M285 196.26C284.529 196.202 284.054 196.179 283.58 196.19C283.449 196.181 283.326 196.126 283.233 196.034C283.139 195.942 283.082 195.82 283.07 195.69C283.069 195.625 283.08 195.56 283.104 195.499C283.128 195.439 283.164 195.384 283.21 195.337C283.256 195.29 283.31 195.253 283.37 195.228C283.43 195.203 283.495 195.19 283.56 195.19C284.081 195.177 284.603 195.204 285.12 195.27C285.186 195.274 285.25 195.291 285.309 195.32C285.368 195.348 285.421 195.388 285.465 195.438C285.508 195.487 285.542 195.544 285.563 195.606C285.585 195.669 285.594 195.734 285.59 195.8C285.586 195.866 285.569 195.93 285.54 195.989C285.512 196.048 285.472 196.101 285.422 196.145C285.373 196.188 285.316 196.222 285.254 196.243C285.191 196.265 285.126 196.274 285.06 196.27L285 196.26Z" fill="#FAFAFA"/>
<path d="M264.5 238.28H264.39C264.326 238.266 264.265 238.239 264.211 238.201C264.158 238.163 264.112 238.114 264.078 238.058C264.043 238.002 264.02 237.94 264.01 237.875C264 237.81 264.004 237.744 264.02 237.68L264.71 234.68C264.724 234.615 264.751 234.554 264.789 234.5C264.827 234.446 264.875 234.4 264.931 234.365C264.987 234.33 265.049 234.306 265.114 234.295C265.179 234.283 265.246 234.285 265.31 234.3C265.439 234.331 265.551 234.411 265.622 234.523C265.693 234.635 265.717 234.77 265.69 234.9L264.99 237.9C264.963 238.009 264.9 238.106 264.811 238.175C264.722 238.244 264.613 238.281 264.5 238.28ZM266.36 230.28H266.24C266.112 230.249 266.001 230.169 265.931 230.056C265.862 229.944 265.84 229.809 265.87 229.68L266.56 226.68C266.593 226.553 266.674 226.444 266.786 226.375C266.898 226.306 267.032 226.283 267.16 226.31C267.225 226.324 267.286 226.351 267.34 226.389C267.394 226.427 267.44 226.475 267.475 226.531C267.51 226.587 267.534 226.649 267.545 226.714C267.557 226.779 267.555 226.846 267.54 226.91L266.84 229.91C266.819 230.023 266.76 230.126 266.673 230.2C266.585 230.275 266.475 230.317 266.36 230.32V230.28ZM268.2 222.28H268.09C268.026 222.266 267.965 222.239 267.911 222.201C267.858 222.163 267.812 222.114 267.778 222.058C267.743 222.002 267.72 221.94 267.71 221.875C267.7 221.81 267.704 221.744 267.72 221.68L268.41 218.68C268.424 218.614 268.452 218.552 268.49 218.497C268.529 218.442 268.578 218.395 268.634 218.359C268.691 218.322 268.754 218.298 268.82 218.286C268.886 218.274 268.954 218.276 269.02 218.29C269.086 218.304 269.148 218.332 269.203 218.37C269.258 218.409 269.305 218.458 269.341 218.514C269.378 218.571 269.402 218.634 269.414 218.7C269.426 218.766 269.424 218.834 269.41 218.9L268.72 221.9C268.716 221.964 268.7 222.027 268.671 222.085C268.643 222.143 268.604 222.195 268.556 222.238C268.507 222.281 268.451 222.313 268.39 222.334C268.329 222.355 268.264 222.364 268.2 222.36V222.28ZM270.05 214.28H269.93C269.802 214.249 269.691 214.169 269.621 214.056C269.552 213.944 269.53 213.809 269.56 213.68L269.99 211.8C270.077 211.42 270.167 211.05 270.26 210.69C270.293 210.557 270.378 210.443 270.495 210.373C270.612 210.303 270.752 210.282 270.885 210.315C271.018 210.348 271.132 210.433 271.202 210.55C271.272 210.667 271.293 210.807 271.26 210.94C271.17 211.29 271.08 211.66 271 212.03L270.56 213.91C270.56 213.976 270.547 214.042 270.521 214.104C270.495 214.165 270.458 214.221 270.41 214.267C270.363 214.314 270.306 214.35 270.244 214.375C270.183 214.399 270.116 214.411 270.05 214.41V214.28ZM272.26 206.43C272.2 206.439 272.14 206.439 272.08 206.43C271.956 206.381 271.857 206.285 271.803 206.164C271.749 206.043 271.744 205.905 271.79 205.78C272.18 204.78 272.61 203.78 273.05 202.93C273.112 202.814 273.217 202.727 273.342 202.688C273.467 202.648 273.603 202.66 273.72 202.72C273.779 202.749 273.832 202.789 273.876 202.838C273.919 202.888 273.952 202.946 273.972 203.008C273.993 203.071 274.001 203.137 273.995 203.202C273.989 203.268 273.971 203.332 273.94 203.39C273.488 204.285 273.084 205.203 272.73 206.14C272.71 206.253 272.653 206.355 272.568 206.431C272.482 206.507 272.374 206.553 272.26 206.56V206.43ZM276.35 199.43C276.223 199.427 276.102 199.377 276.01 199.29C275.963 199.244 275.926 199.19 275.901 199.13C275.876 199.07 275.863 199.005 275.863 198.94C275.863 198.875 275.876 198.81 275.901 198.75C275.926 198.69 275.963 198.636 276.01 198.59C276.734 197.817 277.558 197.144 278.46 196.59C278.573 196.522 278.709 196.501 278.837 196.531C278.966 196.56 279.078 196.639 279.15 196.75C279.184 196.806 279.207 196.869 279.218 196.934C279.228 197 279.225 197.066 279.209 197.13C279.193 197.195 279.165 197.255 279.125 197.308C279.086 197.361 279.037 197.406 278.98 197.44C278.154 197.961 277.4 198.59 276.74 199.31C276.699 199.379 276.642 199.437 276.574 199.481C276.507 199.524 276.43 199.551 276.35 199.56V199.43Z" fill="#FAFAFA"/>
<path d="M263 244.71H262.89C262.826 244.696 262.765 244.669 262.711 244.631C262.658 244.593 262.612 244.545 262.578 244.489C262.543 244.433 262.52 244.37 262.51 244.305C262.5 244.24 262.504 244.174 262.52 244.11L262.86 242.66C262.874 242.594 262.902 242.532 262.94 242.477C262.979 242.422 263.028 242.375 263.084 242.339C263.141 242.302 263.204 242.278 263.27 242.266C263.336 242.254 263.404 242.256 263.47 242.27C263.536 242.284 263.598 242.312 263.653 242.35C263.708 242.389 263.755 242.438 263.791 242.494C263.828 242.551 263.852 242.614 263.864 242.68C263.876 242.746 263.874 242.814 263.86 242.88L263.52 244.34C263.49 244.453 263.422 244.551 263.327 244.619C263.232 244.686 263.116 244.719 263 244.71Z" fill="#FAFAFA"/>
<path d="M290.5 196.92H290.44C289.969 196.864 289.495 196.837 289.02 196.84C288.888 196.84 288.761 196.789 288.666 196.698C288.571 196.606 288.515 196.482 288.51 196.35C288.509 196.284 288.52 196.219 288.544 196.158C288.568 196.097 288.604 196.041 288.649 195.993C288.695 195.946 288.749 195.908 288.809 195.882C288.87 195.856 288.934 195.841 289 195.84C289.521 195.832 290.042 195.859 290.56 195.92C290.693 195.928 290.817 195.988 290.905 196.088C290.993 196.187 291.038 196.317 291.03 196.45C291.022 196.583 290.962 196.707 290.862 196.795C290.763 196.883 290.633 196.928 290.5 196.92Z" fill="#FAFAFA"/>
<path d="M270 238.93H269.88C269.752 238.899 269.641 238.819 269.571 238.706C269.502 238.594 269.48 238.459 269.51 238.33L270.2 235.33C270.214 235.264 270.242 235.202 270.28 235.147C270.319 235.092 270.368 235.045 270.424 235.009C270.481 234.972 270.544 234.948 270.61 234.936C270.676 234.924 270.744 234.926 270.81 234.94C270.876 234.954 270.938 234.982 270.993 235.02C271.048 235.059 271.095 235.108 271.131 235.164C271.168 235.221 271.192 235.284 271.204 235.35C271.216 235.416 271.214 235.484 271.2 235.55L270.5 238.55C270.474 238.662 270.41 238.761 270.319 238.831C270.228 238.9 270.115 238.935 270 238.93ZM271.85 230.93H271.73C271.602 230.899 271.491 230.819 271.421 230.706C271.352 230.594 271.33 230.459 271.36 230.33L272.05 227.33C272.064 227.266 272.091 227.205 272.129 227.151C272.167 227.098 272.216 227.052 272.271 227.018C272.327 226.983 272.39 226.96 272.455 226.95C272.52 226.94 272.586 226.944 272.65 226.96C272.714 226.974 272.776 227.001 272.83 227.039C272.884 227.077 272.93 227.125 272.965 227.181C273 227.237 273.024 227.299 273.035 227.364C273.047 227.429 273.045 227.496 273.03 227.56L272.33 230.56C272.317 230.683 272.259 230.796 272.166 230.878C272.074 230.96 271.953 231.003 271.83 231L271.85 230.93ZM273.69 222.93H273.58C273.516 222.916 273.455 222.889 273.401 222.851C273.348 222.813 273.302 222.764 273.268 222.708C273.233 222.653 273.21 222.59 273.2 222.525C273.19 222.46 273.194 222.394 273.21 222.33L273.9 219.33C273.931 219.202 274.011 219.091 274.124 219.021C274.236 218.952 274.371 218.93 274.5 218.96C274.628 218.991 274.739 219.071 274.809 219.184C274.878 219.296 274.9 219.431 274.87 219.56L274.18 222.56C274.165 222.684 274.105 222.797 274.01 222.879C273.916 222.96 273.795 223.003 273.67 223L273.69 222.93ZM275.54 214.93H275.42C275.292 214.899 275.181 214.819 275.111 214.706C275.042 214.594 275.02 214.459 275.05 214.33L275.48 212.45C275.573 212.07 275.663 211.7 275.75 211.34C275.783 211.207 275.868 211.093 275.985 211.023C276.102 210.953 276.242 210.932 276.375 210.965C276.508 210.998 276.622 211.083 276.692 211.2C276.762 211.317 276.783 211.457 276.75 211.59C276.66 211.94 276.57 212.3 276.49 212.67L276.05 214.56C276.052 214.629 276.039 214.697 276.012 214.76C275.986 214.824 275.946 214.881 275.896 214.928C275.846 214.975 275.787 215.011 275.722 215.034C275.657 215.057 275.588 215.066 275.52 215.06L275.54 214.93ZM277.75 207.09C277.69 207.099 277.63 207.099 277.57 207.09C277.447 207.043 277.348 206.949 277.294 206.83C277.239 206.71 277.234 206.573 277.28 206.45C277.651 205.479 278.072 204.528 278.54 203.6C278.6 203.482 278.704 203.393 278.83 203.352C278.955 203.311 279.092 203.321 279.21 203.38C279.269 203.409 279.322 203.449 279.365 203.498C279.409 203.548 279.442 203.606 279.462 203.668C279.483 203.731 279.491 203.797 279.485 203.862C279.479 203.928 279.461 203.992 279.43 204.05C278.98 204.945 278.576 205.863 278.22 206.8C278.198 206.915 278.137 207.019 278.048 207.095C277.959 207.171 277.847 207.215 277.73 207.22L277.75 207.09ZM281.84 200.09C281.741 200.093 281.644 200.067 281.56 200.014C281.477 199.961 281.411 199.884 281.372 199.793C281.333 199.702 281.323 199.602 281.342 199.505C281.361 199.408 281.409 199.319 281.48 199.25C282.203 198.476 283.027 197.804 283.93 197.25C283.985 197.214 284.048 197.189 284.113 197.177C284.178 197.166 284.245 197.168 284.309 197.183C284.374 197.197 284.434 197.225 284.488 197.264C284.541 197.304 284.586 197.353 284.62 197.41C284.687 197.525 284.707 197.661 284.675 197.789C284.643 197.918 284.563 198.03 284.45 198.1C283.624 198.618 282.871 199.243 282.21 199.96C282.171 200.031 282.114 200.09 282.046 200.134C281.978 200.178 281.901 200.204 281.82 200.21L281.84 200.09Z" fill="#FAFAFA"/>
<path d="M268.47 245.36H268.36C268.296 245.346 268.235 245.319 268.181 245.281C268.128 245.243 268.082 245.194 268.048 245.138C268.013 245.083 267.99 245.02 267.98 244.955C267.97 244.89 267.974 244.824 267.99 244.76L268.33 243.3C268.36 243.167 268.442 243.052 268.558 242.98C268.673 242.908 268.812 242.884 268.945 242.915C269.078 242.945 269.193 243.027 269.265 243.143C269.337 243.258 269.36 243.397 269.33 243.53L269 245C268.97 245.114 268.899 245.213 268.802 245.279C268.705 245.345 268.587 245.374 268.47 245.36Z" fill="#FAFAFA"/>
<path d="M288.27 200.52C288.174 200.519 288.08 200.491 287.999 200.44C287.918 200.389 287.852 200.316 287.81 200.23C287.782 200.17 287.766 200.106 287.763 200.04C287.761 199.974 287.771 199.908 287.795 199.847C287.818 199.785 287.854 199.729 287.899 199.681C287.945 199.634 287.999 199.596 288.06 199.57C288.575 199.313 289.136 199.16 289.71 199.12C289.841 199.128 289.964 199.184 290.055 199.279C290.146 199.373 290.198 199.499 290.2 199.63C290.195 199.76 290.14 199.883 290.047 199.974C289.954 200.065 289.83 200.118 289.7 200.12C289.277 200.167 288.864 200.285 288.48 200.47C288.416 200.505 288.343 200.522 288.27 200.52Z" fill="#FAFAFA"/>
<path d="M273.89 241.7H273.78C273.716 241.686 273.655 241.659 273.601 241.621C273.548 241.583 273.502 241.535 273.468 241.479C273.433 241.423 273.41 241.36 273.4 241.295C273.39 241.23 273.394 241.164 273.41 241.1L274.04 238.39C274.054 238.326 274.081 238.265 274.119 238.211C274.157 238.158 274.205 238.112 274.261 238.078C274.317 238.043 274.38 238.02 274.445 238.01C274.51 238 274.576 238.004 274.64 238.02C274.768 238.051 274.879 238.131 274.949 238.244C275.018 238.356 275.04 238.491 275.01 238.62L274.38 241.33C274.353 241.438 274.289 241.534 274.2 241.601C274.111 241.669 274.002 241.703 273.89 241.7ZM275.58 234.48H275.46C275.332 234.449 275.221 234.369 275.151 234.256C275.082 234.144 275.06 234.009 275.09 233.88L275.72 231.17C275.751 231.042 275.831 230.931 275.944 230.861C276.056 230.792 276.191 230.77 276.32 230.8C276.384 230.814 276.445 230.841 276.499 230.879C276.552 230.917 276.598 230.965 276.632 231.021C276.667 231.077 276.69 231.14 276.7 231.205C276.71 231.27 276.706 231.336 276.69 231.4L276.06 234.11C276.032 234.216 275.969 234.309 275.882 234.376C275.796 234.443 275.689 234.479 275.58 234.48ZM277.26 227.25H277.14C277.013 227.217 276.904 227.136 276.835 227.024C276.766 226.912 276.743 226.778 276.77 226.65L277.4 223.94C277.414 223.876 277.441 223.814 277.479 223.76C277.517 223.706 277.565 223.66 277.621 223.625C277.677 223.59 277.739 223.566 277.804 223.555C277.869 223.543 277.936 223.545 278 223.56C278.128 223.591 278.239 223.671 278.309 223.784C278.378 223.896 278.4 224.031 278.37 224.16L277.74 226.87C277.713 226.978 277.652 227.073 277.565 227.142C277.478 227.211 277.371 227.249 277.26 227.25ZM278.93 220.02H278.82C278.756 220.006 278.694 219.979 278.64 219.941C278.586 219.903 278.54 219.855 278.505 219.799C278.47 219.743 278.446 219.681 278.435 219.616C278.423 219.551 278.425 219.484 278.44 219.42L279.07 216.71C279.084 216.646 279.111 216.584 279.149 216.53C279.187 216.476 279.235 216.43 279.291 216.395C279.347 216.36 279.409 216.336 279.474 216.325C279.539 216.313 279.606 216.315 279.67 216.33C279.734 216.344 279.795 216.371 279.849 216.409C279.902 216.447 279.948 216.495 279.982 216.551C280.017 216.607 280.04 216.67 280.05 216.735C280.06 216.8 280.056 216.866 280.04 216.93L279.42 219.64C279.388 219.745 279.323 219.836 279.235 219.901C279.146 219.966 279.039 220.001 278.93 220V220.02ZM280.66 212.81H280.53C280.466 212.793 280.406 212.763 280.354 212.722C280.302 212.682 280.258 212.631 280.225 212.573C280.193 212.516 280.172 212.452 280.164 212.386C280.156 212.32 280.162 212.254 280.18 212.19C280.45 211.26 280.73 210.36 281.03 209.51C281.082 209.396 281.174 209.305 281.289 209.256C281.404 209.207 281.533 209.203 281.651 209.244C281.769 209.286 281.868 209.37 281.927 209.48C281.986 209.59 282.001 209.719 281.97 209.84C281.68 210.67 281.4 211.55 281.15 212.47C281.114 212.571 281.048 212.658 280.96 212.719C280.872 212.78 280.767 212.812 280.66 212.81ZM283.34 205.91C283.256 205.909 283.174 205.889 283.1 205.85C283.042 205.819 282.991 205.776 282.95 205.725C282.908 205.674 282.877 205.615 282.859 205.552C282.84 205.488 282.834 205.422 282.841 205.357C282.848 205.291 282.868 205.228 282.9 205.17C283.347 204.331 283.855 203.525 284.42 202.76C284.459 202.707 284.509 202.663 284.565 202.63C284.622 202.596 284.684 202.574 284.749 202.565C284.814 202.556 284.88 202.559 284.944 202.576C285.008 202.592 285.067 202.621 285.12 202.66C285.173 202.699 285.217 202.749 285.25 202.805C285.284 202.862 285.306 202.924 285.315 202.989C285.324 203.054 285.321 203.12 285.304 203.184C285.288 203.248 285.259 203.307 285.22 203.36C284.686 204.088 284.204 204.853 283.78 205.65C283.736 205.728 283.672 205.793 283.595 205.839C283.518 205.885 283.43 205.909 283.34 205.91Z" fill="#FAFAFA"/>
<path d="M272.5 247.68H272.39C272.261 247.649 272.149 247.569 272.078 247.457C272.007 247.345 271.983 247.21 272.01 247.08L272.35 245.62C272.364 245.556 272.391 245.495 272.429 245.441C272.467 245.388 272.515 245.342 272.571 245.308C272.627 245.273 272.69 245.25 272.755 245.24C272.82 245.23 272.886 245.234 272.95 245.25C273.015 245.264 273.076 245.291 273.13 245.329C273.184 245.367 273.23 245.415 273.265 245.471C273.3 245.527 273.324 245.589 273.335 245.654C273.347 245.719 273.345 245.786 273.33 245.85L272.99 247.3C272.963 247.409 272.9 247.506 272.811 247.575C272.722 247.644 272.613 247.681 272.5 247.68Z" fill="#FAFAFA"/>
<path d="M413.32 132.32C408.785 132.32 404.435 130.518 401.228 127.311C398.022 124.105 396.22 119.755 396.22 115.22V77.9C400.754 77.9026 405.102 79.7051 408.309 82.9114C411.515 86.1177 413.317 90.4656 413.32 95V132.32Z" fill="#263238"/>
<path d="M397 123.1C401.18 123.31 404.26 124.1 407.1 132.32C409.94 140.54 415.88 172.11 413.89 175.41L400.43 167.14L397.35 152.49C389.91 146.08 390.37 125.41 397 123.1Z" fill="#FFA8A7"/>
<path d="M424.21 347.14L414.12 350.13L409.76 335.44L420.07 331.91L424.21 347.14Z" fill="#FFA8A7"/>
<path d="M412.64 345.16L412.21 343.71C411.37 344.42 411.11 353.34 408.76 358.48C406.18 364.11 403.45 368.11 402.3 370.64C400.77 374.02 406.75 375.81 413.36 372.55C416.64 370.93 421.9 366.7 422.73 364C423.56 361.3 423.28 357.77 424.01 355.75C424.74 353.73 427.01 351.05 427.1 348.95C427.1 347.79 426.03 345.62 424.95 343.82C423.95 342.18 422.86 340.37 422.3 340.72L422.63 341.82C421.644 343.568 420.176 344.995 418.4 345.93C416.85 346.71 413.18 346.91 412.64 345.16Z" fill="#263238"/>
<path d="M399.22 179.53C405.3 187.33 406.39 195.39 405.07 218.2C403.75 241.01 403.32 260.09 403.66 261.37C404 262.65 411.15 271.82 413.47 280.16C415.79 288.5 422.05 335.8 422.05 335.8C422.05 335.8 418.5 341 410.58 341C410.58 341 385.2 271.89 383.5 266.76C381.8 261.63 371 207.57 371 207.57L372.64 177.06L399.22 179.53Z" fill="#37474F"/>
<path d="M360.121 327.817L349.602 327.677L349.399 342.996L359.918 343.135L360.121 327.817Z" fill="#FFA8A7"/>
<path d="M352.77 205.77C353.69 195.24 356 177 356 177L382.93 175.42C387.3 182.22 385.4 193.53 384.21 203.74L368.76 264C369.07 266.89 371.76 273 368.76 288.54C365.44 305.87 360.52 330.72 360.52 330.72C360.52 330.72 352.85 334.59 349.06 330.38C349.06 330.38 347.06 274.02 348.45 259.02C350 242.83 352.13 213 352.77 205.77Z" fill="#37474F"/>
<path d="M349.49 337.78V336.28C348.49 336.7 345.57 345.14 341.79 349.35C337.68 354 333.88 357 332 359C329.53 361.77 334.7 365.26 342 364.11C345.61 363.54 351.88 361.11 353.48 358.74C355.08 356.37 355.86 352.95 357.16 351.24C358.46 349.53 361.42 347.65 362.16 345.66C362.55 344.57 362.16 342.16 361.63 340.13C361.17 338.26 360.63 336.21 360.03 336.38C360.03 336.6 360.03 337.52 360.03 337.52C358.577 338.904 356.753 339.835 354.78 340.2C353 340.52 349.47 339.62 349.49 337.78Z" fill="#263238"/>
<path d="M375.69 231.35L371.29 209.23C367.396 207.845 363.698 205.959 360.29 203.62C362.463 206.378 365.062 208.771 367.99 210.71L375.69 231.35Z" fill="#263238"/>
<path d="M357.65 159.88C356.99 166.02 354.51 188.76 354.51 188.76C374.81 199.59 400 192.41 403.85 187.95C400.36 176.46 396.6 169.95 393.73 166.86L397.39 152.49C397.39 152.49 388.33 139.49 397.04 123.1L386.27 122.22L370.46 121.76C366.68 121.97 363.99 122.33 363.99 122.33C361.57 124.6 357.75 130.83 355.27 137.16C353.68 141.25 352 147.78 357.65 159.88Z" fill="#0752F7"/>
<path d="M372.75 112.34H381.18C383.793 112.34 386.381 111.825 388.795 110.825C391.21 109.825 393.404 108.359 395.251 106.511C397.099 104.664 398.565 102.47 399.565 100.055C400.565 97.641 401.08 95.0533 401.08 92.44C401.083 86.0491 398.548 79.9186 394.033 75.3958C389.517 70.873 383.391 68.328 377 68.32C370.603 68.32 364.468 70.8612 359.945 75.3846C355.421 79.908 352.88 86.043 352.88 92.44C352.88 97.7126 354.972 102.77 358.698 106.501C362.423 110.232 367.477 112.332 372.75 112.34Z" fill="#263238"/>
<path d="M361.46 78.82C358.91 80.33 355.77 86.74 356.08 100.17C356.34 111.55 360.03 114.37 361.88 115.17C363.73 115.97 367.31 115.48 370.78 114.91V121.74C370.78 121.74 365.98 127.31 366.28 130.45C366.58 133.59 373.22 134.32 377.71 131.26C382.2 128.2 385.99 122.26 385.99 122.26L385.91 106.55C385.91 106.55 387.91 108.55 391.42 105.55C394.28 103.05 395.25 98.83 393.02 96.55C392.44 96.0134 391.742 95.6216 390.982 95.407C390.222 95.1923 389.422 95.1607 388.647 95.3148C387.872 95.469 387.145 95.8045 386.525 96.2938C385.905 96.7831 385.41 97.4124 385.08 98.13C385.08 98.13 379.54 98.34 372.16 94.28C369.285 92.7281 366.817 90.5188 364.957 87.8321C363.098 85.1455 361.9 82.0576 361.46 78.82Z" fill="#FFA8A7"/>
<path d="M368.79 97.31C368.775 97.5007 368.798 97.6926 368.858 97.8743C368.918 98.056 369.014 98.224 369.14 98.3683C369.265 98.5126 369.419 98.6304 369.59 98.7148C369.762 98.7992 369.949 98.8486 370.14 98.86C370.437 98.8876 370.734 98.8259 370.995 98.6826C371.257 98.5393 371.469 98.3211 371.604 98.0561C371.74 97.7911 371.794 97.4915 371.758 97.1959C371.721 96.9003 371.598 96.6224 371.402 96.3978C371.207 96.1733 370.948 96.0125 370.66 95.9362C370.373 95.8599 370.068 95.8715 369.787 95.9697C369.506 96.0679 369.261 96.248 369.083 96.4869C368.905 96.7258 368.803 97.0125 368.79 97.31Z" fill="#263238"/>
<g style="mix-blend-mode:multiply" opacity="0.5">
<g style="mix-blend-mode:multiply" opacity="0.5">
<path d="M368.4 107L365.08 108C365.14 108.222 365.244 108.431 365.386 108.612C365.528 108.793 365.705 108.944 365.907 109.055C366.108 109.166 366.33 109.235 366.56 109.259C366.789 109.282 367.02 109.258 367.24 109.19C367.674 109.039 368.035 108.729 368.25 108.323C368.466 107.917 368.519 107.444 368.4 107Z" fill="#F28F8F"/>
</g>
</g>
<path d="M357.05 92.91L359.94 90.91C359.819 90.7149 359.66 90.5464 359.472 90.4148C359.285 90.2832 359.072 90.1912 358.847 90.1445C358.623 90.0977 358.391 90.0971 358.166 90.1428C357.942 90.1884 357.729 90.2793 357.54 90.41C357.154 90.6845 356.887 91.097 356.796 91.5622C356.705 92.0274 356.796 92.5098 357.05 92.91Z" fill="#263238"/>
<path d="M357.72 96.27C357.705 96.4613 357.728 96.6537 357.788 96.836C357.848 97.0183 357.944 97.1869 358.069 97.332C358.195 97.4771 358.348 97.5958 358.52 97.6813C358.691 97.7668 358.879 97.8173 359.07 97.83C359.458 97.8381 359.833 97.694 360.115 97.4285C360.397 97.1629 360.564 96.7973 360.58 96.41C360.599 96.0307 360.466 95.6596 360.211 95.3783C359.956 95.097 359.599 94.9285 359.22 94.91C358.841 94.8914 358.47 95.0243 358.188 95.2793C357.907 95.5344 357.739 95.8907 357.72 96.27Z" fill="#263238"/>
<g style="mix-blend-mode:multiply" opacity="0.5">
<g style="mix-blend-mode:multiply" opacity="0.5">
<path d="M364.47 95.45L364.24 104.07L359.71 102.67L364.47 95.45Z" fill="#F28F8F"/>
</g>
</g>
<g style="mix-blend-mode:multiply" opacity="0.5">
<g style="mix-blend-mode:multiply" opacity="0.5">
<path d="M370.78 114.92C374.44 114.44 381.98 112.27 383.15 109.29C382.683 110.798 381.761 112.126 380.51 113.09C378.26 115.02 370.78 117.2 370.78 117.2V114.92Z" fill="#F28F8F"/>
</g>
</g>
<path d="M380.46 69.61L381.01 63.29C380.597 63.2313 380.177 63.2574 379.774 63.3665C379.372 63.4757 378.996 63.6656 378.67 63.9248C378.343 64.184 378.073 64.507 377.875 64.8741C377.677 65.2412 377.557 65.6447 377.52 66.06C377.46 66.9161 377.732 67.7624 378.279 68.4234C378.827 69.0844 379.608 69.5093 380.46 69.61Z" fill="#263238"/>
<path d="M380.8 70.25L385.92 66.5C385.691 66.151 385.394 65.8522 385.046 65.6216C384.698 65.3911 384.307 65.2336 383.897 65.1588C383.486 65.084 383.065 65.0934 382.658 65.1864C382.251 65.2794 381.867 65.4542 381.53 65.7C380.845 66.218 380.387 66.9805 380.251 67.8283C380.115 68.6762 380.312 69.5438 380.8 70.25Z" fill="#263238"/>
<path d="M400.47 167.14C400.47 167.14 370.78 174.81 365.47 175.41C361.01 175.91 357.6 175.78 354.36 173.41C351.12 171.04 348.87 170.97 348.87 170.97C349.461 172.924 349.84 174.935 350 176.97C348.61 178.6 346.57 177.29 346.57 177.29C346.499 176.22 346.328 175.158 346.06 174.12C342.38 175.49 340.44 177.18 341.06 179.6C341.56 181.47 342.56 188.2 348.41 189.17C353.18 189.96 361.98 187.08 367.97 185.52C373.96 183.96 406.47 180.52 413.9 175.43C413.803 173.884 413.336 172.384 412.539 171.057C411.741 169.729 410.635 168.613 409.316 167.803C407.996 166.992 406.501 166.51 404.956 166.398C403.412 166.286 401.863 166.548 400.44 167.16L400.47 167.14Z" fill="#FFA8A7"/>
</svg>
