<svg width="500" height="500" viewBox="0 0 500 500" fill="none" xmlns="http://www.w3.org/2000/svg">
<path d="M118.2 391.05C132.56 393.19 147.2 392.82 161.59 394.66C197.91 399.3 220.59 419.39 246.75 438.41H409.12C410.29 437.19 411.43 435.95 412.54 434.67C452.05 389.22 456.26 313 440.97 257.67C420.47 183.35 364 93.2101 283.22 75.9401C247.49 68.3001 209.85 74.81 179.63 95.38C112.3 141.21 48.72 220.38 50.87 305.87C51.9 346.84 75.85 384.73 118.2 391.05Z" fill="#0751F5"/>
<path opacity="0.7" d="M118.2 391.05C132.56 393.19 147.2 392.82 161.59 394.66C197.91 399.3 220.59 419.39 246.75 438.41H409.12C410.29 437.19 411.43 435.95 412.54 434.67C452.05 389.22 456.26 313 440.97 257.67C420.47 183.35 364 93.2101 283.22 75.9401C247.49 68.3001 209.85 74.81 179.63 95.38C112.3 141.21 48.72 220.38 50.87 305.87C51.9 346.84 75.85 384.73 118.2 391.05Z" fill="white"/>
<path d="M38.92 438.41H464.46" stroke="#263238" stroke-linecap="round" stroke-linejoin="round"/>
<path d="M352.21 84H190.26C185.146 84 181 88.1458 181 93.26V426.74C181 431.854 185.146 436 190.26 436H352.21C357.324 436 361.47 431.854 361.47 426.74V93.26C361.47 88.1458 357.324 84 352.21 84Z" fill="white" stroke="#263238" stroke-linecap="round" stroke-linejoin="round"/>
<path d="M257.28 92.79C257.282 93.2889 257.136 93.7771 256.86 94.1928C256.584 94.6085 256.192 94.9331 255.731 95.1253C255.271 95.3176 254.764 95.3689 254.275 95.2728C253.785 95.1767 253.335 94.9375 252.982 94.5855C252.628 94.2334 252.387 93.7844 252.289 93.2953C252.191 92.8062 252.24 92.299 252.431 91.838C252.621 91.3769 252.944 90.9828 253.359 90.7054C253.774 90.4281 254.261 90.28 254.76 90.28C255.427 90.28 256.066 90.5441 256.538 91.0146C257.011 91.485 257.277 92.1234 257.28 92.79Z" fill="#0751F5" stroke="#263238" stroke-linecap="round" stroke-linejoin="round"/>
<path d="M290.22 92.79C290.222 93.1029 290.131 93.4093 289.959 93.6705C289.786 93.9316 289.54 94.1357 289.252 94.2568C288.963 94.3779 288.645 94.4107 288.338 94.3508C288.031 94.291 287.748 94.1413 287.526 93.9207C287.304 93.7002 287.153 93.4187 287.091 93.1119C287.029 92.8052 287.06 92.487 287.179 92.1977C287.299 91.9084 287.501 91.661 287.761 91.487C288.021 91.3129 288.327 91.22 288.64 91.22C289.057 91.22 289.458 91.3851 289.754 91.6792C290.05 91.9734 290.217 92.3727 290.22 92.79Z" fill="#0751F5" stroke="#263238" stroke-linecap="round" stroke-linejoin="round"/>
<path d="M281.4 91.9H262.22C261.811 91.9 261.48 92.2313 261.48 92.64V92.94C261.48 93.3487 261.811 93.68 262.22 93.68H281.4C281.809 93.68 282.14 93.3487 282.14 92.94V92.64C282.14 92.2313 281.809 91.9 281.4 91.9Z" fill="#0751F5" stroke="#263238" stroke-linecap="round" stroke-linejoin="round"/>
<path opacity="0.4" d="M356.25 95.8899V424.95C356.25 426.565 355.608 428.114 354.466 429.256C353.324 430.398 351.775 431.04 350.16 431.04H192.31C191.51 431.04 190.718 430.882 189.979 430.576C189.241 430.27 188.569 429.822 188.004 429.256C187.438 428.691 186.99 428.019 186.684 427.28C186.378 426.542 186.22 425.75 186.22 424.95V95.8899C186.22 95.0907 186.378 94.2992 186.684 93.5609C186.99 92.8226 187.439 92.1519 188.004 91.5872C188.57 91.0225 189.241 90.5748 189.98 90.2699C190.719 89.9649 191.511 89.8086 192.31 89.8099H224.71C225.752 89.8092 226.769 90.1267 227.625 90.7201C228.481 91.3135 229.135 92.1543 229.5 93.1299L230.88 96.8299C231.241 97.8066 231.893 98.6493 232.748 99.2446C233.602 99.8399 234.619 100.159 235.66 100.16H306.8C307.843 100.16 308.861 99.8409 309.717 99.2457C310.573 98.6504 311.227 97.8074 311.59 96.8299L312.97 93.1299C313.332 92.1543 313.984 91.313 314.839 90.7194C315.693 90.1258 316.709 89.8084 317.75 89.8099H350.16C351.773 89.8099 353.321 90.4502 354.463 91.5901C355.605 92.7301 356.247 94.2765 356.25 95.8899Z" fill="#0751F5"/>
<path d="M356.25 405.78V424.95C356.251 425.75 356.095 426.543 355.789 427.282C355.484 428.022 355.035 428.693 354.469 429.259C353.903 429.825 353.232 430.274 352.492 430.579C351.753 430.885 350.96 431.041 350.16 431.04H192.31C191.51 431.04 190.718 430.882 189.979 430.576C189.241 430.27 188.569 429.822 188.004 429.256C187.438 428.691 186.99 428.019 186.684 427.281C186.378 426.542 186.22 425.75 186.22 424.95V405.78H356.25Z" fill="#0751F5"/>
<path d="M356.25 95.8999V111.02H186.25V95.8999C186.25 94.2848 186.892 92.7358 188.034 91.5937C189.176 90.4516 190.725 89.8099 192.34 89.8099H224.74C225.782 89.8078 226.8 90.1248 227.656 90.7183C228.512 91.3119 229.166 92.1535 229.53 93.1299L230.9 96.8299C231.264 97.8066 231.918 98.6488 232.774 99.2439C233.63 99.8389 234.648 100.159 235.69 100.16H306.83C307.872 100.159 308.89 99.8389 309.746 99.2439C310.602 98.6488 311.256 97.8066 311.62 96.8299L312.99 93.1299C313.355 92.1543 314.009 91.3135 314.865 90.7201C315.721 90.1267 316.738 89.8092 317.78 89.8099H350.16C350.96 89.8086 351.753 89.9653 352.492 90.2708C353.232 90.5764 353.903 91.025 354.469 91.5907C355.035 92.1565 355.484 92.8284 355.789 93.5678C356.095 94.3073 356.251 95.0998 356.25 95.8999Z" fill="#0751F5"/>
<path d="M356.25 95.85V424.91C356.247 426.523 355.605 428.07 354.463 429.21C353.321 430.35 351.773 430.99 350.16 430.99H192.31C191.511 430.991 190.719 430.835 189.98 430.53C189.241 430.225 188.57 429.777 188.004 429.213C187.439 428.648 186.99 427.977 186.684 427.239C186.378 426.501 186.22 425.709 186.22 424.91V95.85C186.22 95.0503 186.378 94.2583 186.684 93.5195C186.99 92.7806 187.438 92.1092 188.004 91.5437C188.569 90.9782 189.241 90.5296 189.979 90.2236C190.718 89.9175 191.51 89.76 192.31 89.76H224.71C225.753 89.76 226.771 90.079 227.627 90.6743C228.483 91.2695 229.137 92.1125 229.5 93.09L230.88 96.78C231.241 97.7567 231.893 98.5994 232.748 99.1947C233.602 99.79 234.619 100.109 235.66 100.11H306.8C307.843 100.11 308.861 99.791 309.717 99.1957C310.573 98.6005 311.227 97.7575 311.59 96.78L312.96 93.09C313.321 92.1133 313.973 91.2707 314.828 90.6754C315.682 90.0801 316.699 89.7606 317.74 89.76H350.16C351.775 89.76 353.324 90.4016 354.466 91.5437C355.608 92.6858 356.25 94.2348 356.25 95.85V95.85Z" stroke="#263238" stroke-linecap="round" stroke-linejoin="round"/>
<path d="M307.01 298.86H235.45C228.784 298.86 223.38 304.264 223.38 310.93V315.76C223.38 322.426 228.784 327.83 235.45 327.83H307.01C313.676 327.83 319.08 322.426 319.08 315.76V310.93C319.08 304.264 313.676 298.86 307.01 298.86Z" fill="#263238"/>
<path d="M247.52 309.85V311.64C247.52 313.85 246.45 315.05 244.29 315.05H243.29V320.23H241.12V306.44H244.32C246.45 306.44 247.52 307.64 247.52 309.85ZM243.26 308.41V313.08H244.26C244.95 313.08 245.32 312.76 245.32 311.78V309.71C245.32 308.71 244.95 308.41 244.26 308.41H243.26Z" fill="white"/>
<path d="M250.59 306.44V317.08C250.59 318.08 251.02 318.42 251.71 318.42C252.4 318.42 252.84 318.06 252.84 317.08V306.44H254.89V316.94C254.89 319.15 253.78 320.41 251.65 320.41C249.52 320.41 248.42 319.15 248.42 316.94V306.44H250.59Z" fill="white"/>
<path d="M260.9 320.23C260.718 319.683 260.65 319.104 260.7 318.53V316.37C260.7 315.09 260.27 314.61 259.28 314.61H258.53V320.23H256.37V306.44H259.64C261.88 306.44 262.85 307.44 262.85 309.61V310.69C262.926 311.243 262.83 311.806 262.577 312.303C262.323 312.8 261.922 313.207 261.43 313.47C262.51 313.92 262.87 314.95 262.87 316.39V318.59C262.832 319.16 262.91 319.731 263.1 320.27L260.9 320.23ZM258.53 308.41V312.64H259.38C260.19 312.64 260.68 312.29 260.68 311.19V309.83C260.68 308.83 260.34 308.41 259.58 308.41H258.53Z" fill="white"/>
<path d="M270.57 315.09V316.92C270.57 319.12 269.47 320.39 267.34 320.39C265.21 320.39 264.11 319.12 264.11 316.92V309.75C264.11 307.54 265.21 306.28 267.34 306.28C269.47 306.28 270.57 307.54 270.57 309.75V311.09H268.52V309.59C268.52 308.59 268.09 308.23 267.4 308.23C266.71 308.23 266.27 308.61 266.27 309.59V317.04C266.27 318.04 266.71 318.38 267.4 318.38C268.09 318.38 268.52 318.02 268.52 317.04V315.04L270.57 315.09Z" fill="white"/>
<path d="M274.06 320.23H271.89V306.44H274.06V312.35H276.52V306.44H278.73V320.23H276.52V314.32H274.06V320.23Z" fill="white"/>
<path d="M287.32 320.23H285.13L284.76 317.73H282.1L281.72 320.23H279.72L281.96 306.44H285.13L287.32 320.23ZM282.32 315.86H284.41L283.41 308.86L282.32 315.86Z" fill="white"/>
<path d="M291.24 306.28C293.35 306.28 294.43 307.54 294.43 309.75V310.18H292.38V309.59C292.38 308.59 291.99 308.23 291.3 308.23C290.61 308.23 290.21 308.61 290.21 309.59C290.21 310.57 290.65 311.34 292.07 312.59C293.88 314.19 294.45 315.33 294.45 316.91C294.45 319.11 293.35 320.38 291.22 320.38C289.09 320.38 287.99 319.11 287.99 316.91V316.06H290.04V317.06C290.04 318.06 290.47 318.4 291.16 318.4C291.85 318.4 292.28 318.04 292.28 317.06C292.28 316.08 291.85 315.3 290.43 314.06C288.62 312.47 288.05 311.32 288.05 309.75C288.05 307.59 289.13 306.28 291.24 306.28Z" fill="white"/>
<path d="M297.86 312.25H300.86V314.25H297.86V318.25H301.6V320.25H295.69V306.44H301.6V308.44H297.86V312.25Z" fill="white"/>
<path d="M291.25 251.22H251.25L252.25 250.81C254.606 249.844 256.623 248.202 258.046 246.092C259.47 243.981 260.237 241.496 260.25 238.95V224.21H282.25V238.86C282.248 241.421 283.008 243.924 284.432 246.052C285.857 248.18 287.882 249.836 290.25 250.81L291.25 251.22Z" fill="white"/>
<path opacity="0.3" d="M282.22 224.21V237.02C274.974 238.431 267.601 239.077 260.22 238.95V224.21H282.22Z" fill="black" fill-opacity="0.7"/>
<path d="M291.25 251.22H251.25L252.25 250.81C254.606 249.844 256.623 248.202 258.046 246.092C259.47 243.981 260.237 241.496 260.25 238.95V224.21H282.25V238.86C282.248 241.421 283.008 243.924 284.432 246.052C285.857 248.18 287.882 249.836 290.25 250.81L291.25 251.22Z" stroke="#263238" stroke-linecap="round" stroke-linejoin="round"/>
<path d="M315.96 160.94H226.5C224.843 160.94 223.5 162.283 223.5 163.94V229.12C223.5 230.777 224.843 232.12 226.5 232.12H315.96C317.617 232.12 318.96 230.777 318.96 229.12V163.94C318.96 162.283 317.617 160.94 315.96 160.94Z" fill="white" stroke="#263238" stroke-linecap="round" stroke-linejoin="round"/>
<path d="M315.16 166.33H227.3V226.73H315.16V166.33Z" fill="#BFBFBF"/>
<path opacity="0.4" d="M288.33 166.33C288.33 166.33 266.47 207.6 227.33 212.72V166.33H288.33Z" fill="white"/>
<path opacity="0.4" d="M315.16 187.67V226.73H272.86C279.33 205.47 301.14 193.44 315.16 187.67Z" fill="white"/>
<path d="M315.16 166.33H227.3V226.73H315.16V166.33Z" stroke="#263238" stroke-linecap="round" stroke-linejoin="round"/>
<path d="M251.02 248.73H291.44C291.97 248.73 292.479 248.941 292.854 249.316C293.229 249.691 293.44 250.2 293.44 250.73V254.45H249.07V250.73C249.07 250.208 249.274 249.707 249.638 249.333C250.002 248.959 250.498 248.743 251.02 248.73Z" fill="white" stroke="#263238" stroke-linecap="round" stroke-linejoin="round"/>
<path d="M234.98 266.56H215.03V286.51H234.98V266.56Z" fill="#BFBFBF" stroke="#263238" stroke-linecap="round" stroke-linejoin="round"/>
<path d="M258.1 266.56H238.15V286.51H258.1V266.56Z" fill="#BFBFBF" stroke="#263238" stroke-linecap="round" stroke-linejoin="round"/>
<path d="M281.21 266.56H261.26V286.51H281.21V266.56Z" fill="#BFBFBF" stroke="#263238" stroke-linecap="round" stroke-linejoin="round"/>
<path d="M304.32 266.56H284.37V286.51H304.32V266.56Z" fill="#BFBFBF" stroke="#263238" stroke-linecap="round" stroke-linejoin="round"/>
<path d="M327.44 266.56H307.49V286.51H327.44V266.56Z" fill="#BFBFBF" stroke="#263238" stroke-linecap="round" stroke-linejoin="round"/>
<path d="M332.17 279.52L335.15 276.53L332.17 273.55" stroke="#263238" stroke-linecap="round" stroke-linejoin="round"/>
<path d="M210.3 273.55L207.31 276.53L210.3 279.52" stroke="#263238" stroke-linecap="round" stroke-linejoin="round"/>
<path d="M315.51 147.49L320 146.54L322.43 150.44L327.02 150.63L328.4 155.02L332.8 156.35L333.05 160.93L336.97 163.32L336.07 167.82L339.28 171.1L337.29 175.24L339.59 179.22L336.63 182.74L337.86 187.16L334.12 189.83L334.21 194.42L329.93 196.08L328.87 200.55L324.31 201.09L322.18 205.15L317.63 204.54L314.55 207.95L310.3 206.22L306.47 208.76L302.77 206.03L298.44 207.54L295.54 203.97L290.96 204.35L289.04 200.18L284.51 199.41L283.69 194.89L279.49 193.02L279.83 188.44L276.23 185.58L277.68 181.22L274.91 177.56L277.4 173.71L275.63 169.47L279 166.35L278.34 161.81L282.38 159.63L282.86 155.06L287.32 153.96L288.93 149.66L293.52 149.7L296.15 145.93L300.59 147.11L304.06 144.11L308.07 146.36L312.19 144.32L315.51 147.49Z" fill="#0751F5" stroke="#263238" stroke-linecap="round" stroke-linejoin="round"/>
<path d="M291.07 176.21L290.47 178.31C290.01 179.93 290.55 180.71 291.69 181.03C292.83 181.35 293.69 180.98 294.15 179.36L295.57 174.36C296.03 172.74 295.49 171.93 294.36 171.61C293.23 171.29 292.36 171.7 291.88 173.31L291.69 173.99L288.33 173.04L292.71 160.09L302.08 162.76L301.16 165.99L294.96 164.23L293.13 169.59H293.2C293.661 169.147 294.236 168.841 294.861 168.705C295.486 168.569 296.136 168.609 296.74 168.82C299.35 169.56 300.16 171.82 299.21 175.11L297.78 180.11C296.78 183.74 294.35 185.29 290.85 184.3C287.35 183.31 286.14 180.72 287.17 177.1L287.7 175.22L291.07 176.21Z" fill="white"/>
<path d="M303.19 168.96C304.19 165.34 306.72 163.82 310.19 164.81C313.66 165.8 315 168.41 313.97 172.03L310.62 183.8C309.62 187.42 307.1 188.95 303.62 187.96C300.14 186.97 298.8 184.35 299.83 180.73L303.19 168.96ZM303.34 181.96C302.88 183.58 303.41 184.39 304.54 184.71C305.67 185.03 306.54 184.62 307.02 183.01L310.5 170.79C310.96 169.17 310.42 168.35 309.29 168.03C308.16 167.71 307.29 168.12 306.81 169.74L303.34 181.96Z" fill="white"/>
<path d="M317.49 169.15C317.564 168.887 317.689 168.642 317.858 168.428C318.028 168.213 318.237 168.035 318.475 167.901C318.713 167.768 318.976 167.683 319.247 167.651C319.518 167.619 319.792 167.641 320.055 167.715C320.318 167.789 320.563 167.914 320.777 168.083C320.992 168.253 321.17 168.462 321.304 168.7C321.437 168.938 321.522 169.201 321.554 169.472C321.586 169.743 321.564 170.017 321.49 170.28L320.24 174.59C320.09 175.12 319.736 175.57 319.255 175.839C318.774 176.108 318.205 176.175 317.675 176.025C317.145 175.875 316.695 175.521 316.426 175.04C316.157 174.559 316.09 173.99 316.24 173.46L317.49 169.15ZM317.55 173.93C317.39 174.52 317.55 174.83 317.99 174.93C318.43 175.03 318.74 174.88 318.9 174.3L320.18 169.79C320.35 169.21 320.18 168.89 319.74 168.79C319.3 168.69 319 168.79 318.83 169.42L317.55 173.93ZM325.23 169.18L326.45 169.53L317.54 181.19L316.32 180.84L325.23 169.18ZM322.64 175.81C322.79 175.28 323.144 174.83 323.625 174.561C324.106 174.292 324.675 174.225 325.205 174.375C325.735 174.525 326.185 174.879 326.454 175.36C326.723 175.841 326.79 176.41 326.64 176.94L325.41 181.25C325.26 181.78 324.906 182.23 324.425 182.499C323.944 182.768 323.375 182.835 322.845 182.685C322.315 182.535 321.865 182.181 321.596 181.7C321.327 181.219 321.26 180.65 321.41 180.12L322.64 175.81ZM322.7 180.59C322.53 181.17 322.7 181.48 323.14 181.59C323.58 181.7 323.88 181.53 324.05 180.95L325.33 176.45C325.49 175.87 325.33 175.55 324.89 175.45C324.45 175.35 324.14 175.45 323.98 176.09L322.7 180.59Z" fill="white"/>
<path d="M312.77 184.22C312.817 183.962 312.917 183.717 313.064 183.499C313.211 183.282 313.402 183.098 313.624 182.959C313.846 182.819 314.095 182.727 314.354 182.689C314.614 182.651 314.878 182.667 315.131 182.737C315.384 182.807 315.62 182.928 315.823 183.094C316.026 183.259 316.193 183.466 316.312 183.699C316.432 183.933 316.501 184.189 316.516 184.45C316.531 184.712 316.492 184.974 316.4 185.22L315.28 189.22C315.233 189.478 315.133 189.723 314.986 189.941C314.839 190.158 314.648 190.342 314.426 190.481C314.204 190.621 313.955 190.713 313.696 190.751C313.436 190.789 313.172 190.773 312.919 190.703C312.666 190.633 312.43 190.512 312.227 190.346C312.024 190.181 311.857 189.974 311.738 189.741C311.618 189.507 311.549 189.252 311.534 188.99C311.519 188.728 311.558 188.466 311.65 188.22L312.77 184.22ZM312.82 188.59C312.67 189.13 312.82 189.41 313.23 189.52C313.64 189.63 313.91 189.52 314.06 188.94L315.23 184.84C315.38 184.3 315.23 184.02 314.82 183.91C314.41 183.8 314.14 183.91 313.99 184.49L312.82 188.59Z" fill="white"/>
<path d="M317.96 187.37L319.5 187.8L319.19 188.89L317.65 188.45L316.76 191.59L315.57 191.25L317.73 183.65L320.89 184.55L320.58 185.63L318.58 185.08L317.96 187.37Z" fill="white"/>
<path d="M321.66 188.43L323.2 188.87L322.89 189.95L321.35 189.51L320.46 192.65L319.26 192.31L321.42 184.71L324.58 185.61L324.27 186.7L322.27 186.14L321.66 188.43Z" fill="white"/>
<path d="M345.32 341.3H197.14V354.56H345.32V341.3Z" fill="#0751F5"/>
<path d="M313.31 363.27H205.14C204.483 363.27 203.95 363.803 203.95 364.46V364.93C203.95 365.587 204.483 366.12 205.14 366.12H313.31C313.967 366.12 314.5 365.587 314.5 364.93V364.46C314.5 363.803 313.967 363.27 313.31 363.27Z" fill="#0751F5"/>
<path d="M298.91 371.82H205.14C204.483 371.82 203.95 372.353 203.95 373.01V373.48C203.95 374.137 204.483 374.67 205.14 374.67H298.91C299.567 374.67 300.1 374.137 300.1 373.48V373.01C300.1 372.353 299.567 371.82 298.91 371.82Z" fill="#0751F5"/>
<path d="M290.27 383.22H205.38C205.002 383.217 204.641 383.066 204.375 382.798C204.109 382.53 203.96 382.168 203.96 381.79C203.963 381.412 204.114 381.051 204.382 380.785C204.65 380.519 205.012 380.37 205.39 380.37H290.28C290.657 380.37 291.018 380.52 291.284 380.786C291.55 381.052 291.7 381.413 291.7 381.79C291.701 381.978 291.665 382.165 291.594 382.339C291.522 382.513 291.417 382.671 291.284 382.804C291.151 382.937 290.993 383.042 290.819 383.114C290.645 383.185 290.458 383.221 290.27 383.22Z" fill="#0751F5"/>
<path d="M303.71 388.92H205.14C204.483 388.92 203.95 389.453 203.95 390.11V390.58C203.95 391.237 204.483 391.77 205.14 391.77H303.71C304.367 391.77 304.9 391.237 304.9 390.58V390.11C304.9 389.453 304.367 388.92 303.71 388.92Z" fill="#0751F5"/>
<path d="M337.32 363.27H325.19C324.533 363.27 324 363.803 324 364.46V364.93C324 365.587 324.533 366.12 325.19 366.12H337.32C337.977 366.12 338.51 365.587 338.51 364.93V364.46C338.51 363.803 337.977 363.27 337.32 363.27Z" fill="#0751F5"/>
<path d="M337.32 371.82H327.59C326.933 371.82 326.4 372.353 326.4 373.01V373.48C326.4 374.137 326.933 374.67 327.59 374.67H337.32C337.977 374.67 338.51 374.137 338.51 373.48V373.01C338.51 372.353 337.977 371.82 337.32 371.82Z" fill="#0751F5"/>
<path d="M337.32 380.37H323.99C323.333 380.37 322.8 380.903 322.8 381.56V382.03C322.8 382.687 323.333 383.22 323.99 383.22H337.32C337.977 383.22 338.51 382.687 338.51 382.03V381.56C338.51 380.903 337.977 380.37 337.32 380.37Z" fill="#0751F5"/>
<path d="M337.33 388.92H333.6C332.943 388.92 332.41 389.453 332.41 390.11V390.58C332.41 391.237 332.943 391.77 333.6 391.77H337.33C337.987 391.77 338.52 391.237 338.52 390.58V390.11C338.52 389.453 337.987 388.92 337.33 388.92Z" fill="#0751F5"/>
<path d="M328.64 126.83H213.83C211.72 126.83 210.01 128.54 210.01 130.65V132.17C210.01 134.28 211.72 135.99 213.83 135.99H328.64C330.75 135.99 332.46 134.28 332.46 132.17V130.65C332.46 128.54 330.75 126.83 328.64 126.83Z" fill="#0751F5"/>
<path d="M329.79 326.28L311.91 319.24L318.95 337.12L321.73 330.83L324.78 333.89L326.55 332.11L323.5 329.06L329.79 326.28Z" fill="white" stroke="#263238" stroke-linecap="round" stroke-linejoin="round"/>
<path d="M64 407.93C61.7597 411.648 60.2811 415.775 59.65 420.07" stroke="#263238" stroke-linecap="round" stroke-linejoin="round"/>
<path d="M105.77 374.85L97.97 371.46L101.7 362.85L107.12 361.07L109.51 366.24L105.77 374.85Z" fill="#0751F5" stroke="#263238" stroke-linecap="round" stroke-linejoin="round"/>
<path d="M107.12 361.07C109.12 357.34 116.12 350.47 120.93 352.32" stroke="#263238" stroke-linecap="round" stroke-linejoin="round"/>
<path d="M260.68 415.43L266.72 421.42L260.11 428.08L254.42 427.78L254.07 422.09L260.68 415.43Z" fill="#0751F5" stroke="#263238" stroke-linecap="round" stroke-linejoin="round"/>
<path d="M254.42 427.78C254.42 427.78 248.01 436.78 241.08 435.96" stroke="#263238" stroke-linecap="round" stroke-linejoin="round"/>
<path d="M458.59 386.14L454.4 393.54L446.24 388.93L445.03 383.36L450.42 381.52L458.59 386.14Z" fill="#0751F5" stroke="#263238" stroke-linecap="round" stroke-linejoin="round"/>
<path d="M445 383.36C445 383.36 438.54 383.79 434.82 373.73" stroke="#263238" stroke-linecap="round" stroke-linejoin="round"/>
<path d="M431 422.66C431 422.66 430.18 415.12 426.72 411.15" stroke="#263238" stroke-linecap="round" stroke-linejoin="round"/>
<path d="M429.05 399.77H366.33V438.23H429.05V399.77Z" fill="#BFBFBF"/>
<path opacity="0.2" d="M376.33 399.77L402.94 408.24V438.24H429.06V399.77H376.33Z" fill="black" fill-opacity="0.7"/>
<path opacity="0.2" d="M429.05 399.24H402.69V438.24H429.05V399.24Z" fill="black" fill-opacity="0.7"/>
<path d="M429.05 399.77H366.33V438.23H429.05V399.77Z" stroke="#263238" stroke-linecap="round" stroke-linejoin="round"/>
<path d="M388.82 417.87L387.32 419.79L402.94 438.24" stroke="#263238" stroke-linecap="round" stroke-linejoin="round"/>
<path d="M402.94 429.57V399.77L390.49 415.72" stroke="#263238" stroke-linecap="round" stroke-linejoin="round"/>
<path d="M402.95 433.34V435.66" stroke="#263238" stroke-linecap="round" stroke-linejoin="round"/>
<path d="M369.52 433.69L366.33 438.23" stroke="#263238" stroke-linecap="round" stroke-linejoin="round"/>
<path d="M376.99 416.25L379.27 419.79L371 431.58" stroke="#263238" stroke-linecap="round" stroke-linejoin="round"/>
<path d="M371.3 407.45L375.42 413.83" stroke="#263238" stroke-linecap="round" stroke-linejoin="round"/>
<path d="M366.33 399.77L368.97 403.86" stroke="#263238" stroke-linecap="round" stroke-linejoin="round"/>
<path d="M439.05 370.79H376.33V401.09H439.05V370.79Z" fill="#999999"/>
<path opacity="0.2" d="M439.06 370.79H412.95V401.09H439.06V370.79Z" fill="black" fill-opacity="0.7"/>
<path d="M439.05 370.79H376.33V401.09H439.05V370.79Z" stroke="#263238" stroke-linecap="round" stroke-linejoin="round"/>
<path d="M398.82 386.83L397.32 385.32L412.94 370.79" stroke="#263238" stroke-linecap="round" stroke-linejoin="round"/>
<path d="M412.94 377.62V401.1L400.49 388.53" stroke="#263238" stroke-linecap="round" stroke-linejoin="round"/>
<path d="M412.95 374.65V372.82" stroke="#263238" stroke-linecap="round" stroke-linejoin="round"/>
<path d="M379.52 374.37L376.33 370.79" stroke="#263238" stroke-linecap="round" stroke-linejoin="round"/>
<path d="M386.99 388.11L389.27 385.32L381 376.03" stroke="#263238" stroke-linecap="round" stroke-linejoin="round"/>
<path d="M381.3 395.05L385.42 390.02" stroke="#263238" stroke-linecap="round" stroke-linejoin="round"/>
<path d="M376.33 401.1L378.97 397.88" stroke="#263238" stroke-linecap="round" stroke-linejoin="round"/>
<path d="M146.43 352.32H120.93V438.4H146.43V352.32Z" fill="#263238"/>
<path d="M134.31 389.12C132.21 404.98 129.84 424.75 129.84 438.4H117.51V352C117.51 351.165 117.842 350.363 118.433 349.773C119.023 349.182 119.825 348.85 120.66 348.85H135.66C135.66 348.85 136.42 373.26 134.31 389.12Z" fill="#BFBFBF"/>
<path opacity="0.2" d="M126.63 348.81V438.4H117.51V352C117.51 351.165 117.842 350.363 118.433 349.773C119.023 349.182 119.825 348.85 120.66 348.85L126.63 348.81Z" fill="black"/>
<path d="M134.31 389.12C132.21 404.98 129.84 424.75 129.84 438.4H117.51V352C117.51 351.165 117.842 350.363 118.433 349.773C119.023 349.182 119.825 348.85 120.66 348.85H135.66C135.66 348.85 136.42 373.26 134.31 389.12Z" stroke="#263238" stroke-linecap="round" stroke-linejoin="round"/>
<path d="M126.63 350.98V435.47" stroke="#263238" stroke-linecap="round" stroke-linejoin="round"/>
<path d="M148.76 438.41V352C148.76 351.165 148.428 350.363 147.837 349.773C147.247 349.182 146.445 348.85 145.61 348.85H140.61C140.61 348.85 139.8 373.3 141.9 389.16C144 405.02 146.38 424.79 146.38 438.44L148.76 438.41Z" fill="#BFBFBF" stroke="#263238" stroke-linecap="round" stroke-linejoin="round"/>
<path d="M131.12 382.33C131.356 382.33 131.582 382.236 131.749 382.069C131.916 381.903 132.01 381.676 132.01 381.44V355.73C132.01 355.494 131.916 355.268 131.749 355.101C131.582 354.934 131.356 354.84 131.12 354.84C130.884 354.84 130.658 354.934 130.491 355.101C130.324 355.268 130.23 355.494 130.23 355.73V381.44C130.23 381.676 130.324 381.903 130.491 382.069C130.658 382.236 130.884 382.33 131.12 382.33Z" fill="#263238"/>
<path d="M224.4 435.41H167.33C166.861 435.384 166.413 435.208 166.053 434.907C165.693 434.606 165.439 434.197 165.33 433.74L157.09 396C157.029 395.803 157.016 395.595 157.053 395.392C157.089 395.189 157.173 394.998 157.299 394.834C157.424 394.671 157.587 394.54 157.773 394.452C157.959 394.364 158.164 394.322 158.37 394.33H215.44C215.908 394.359 216.354 394.537 216.714 394.837C217.074 395.137 217.328 395.545 217.44 396L225.67 433.72C225.734 433.917 225.75 434.127 225.716 434.332C225.683 434.536 225.6 434.73 225.475 434.896C225.35 435.062 225.188 435.195 225 435.284C224.813 435.374 224.607 435.417 224.4 435.41Z" fill="#BFBFBF" stroke="#263238" stroke-linecap="round" stroke-linejoin="round"/>
<path d="M225.4 435.41H168.33C167.861 435.384 167.413 435.208 167.053 434.907C166.693 434.606 166.439 434.197 166.33 433.74L158.09 396C158.029 395.803 158.016 395.595 158.053 395.392C158.089 395.189 158.173 394.998 158.299 394.834C158.424 394.671 158.587 394.54 158.773 394.452C158.959 394.364 159.164 394.322 159.37 394.33H216.44C216.908 394.359 217.354 394.537 217.714 394.837C218.074 395.137 218.328 395.545 218.44 396L226.67 433.72C226.734 433.917 226.75 434.127 226.716 434.332C226.683 434.536 226.6 434.73 226.475 434.896C226.35 435.062 226.188 435.195 226 435.284C225.813 435.374 225.607 435.417 225.4 435.41Z" fill="#263238"/>
<path d="M224.36 431.45H167.65L165.12 419.87L160.26 397.61H216.97L224.36 431.45Z" fill="#BFBFBF"/>
<path d="M251.48 435.14V436.81L237.71 438H168.85C168.474 437.998 168.115 437.847 167.849 437.581C167.583 437.316 167.433 436.956 167.43 436.58V435.15L251.48 435.14Z" fill="#BFBFBF" stroke="#263238" stroke-linecap="round" stroke-linejoin="round"/>
<path d="M199.48 435.14V436.81L185.71 438H168.85C168.474 437.998 168.115 437.847 167.849 437.581C167.583 437.316 167.433 436.956 167.43 436.58V435.15L199.48 435.14Z" fill="#999999" stroke="#263238" stroke-linecap="round" stroke-linejoin="round"/>
<path opacity="0.4" d="M202.35 397.61C197.12 405.61 186.35 416.27 165.12 419.87L160.26 397.61H202.35Z" fill="white"/>
<path d="M62.01 438.24H124.73V407.94H62.01L62.01 438.24Z" fill="#757575"/>
<path opacity="0.2" d="M62 438.24H88.11V407.94H62V438.24Z" fill="black"/>
<path d="M62.01 438.24H124.73V407.94H62.01L62.01 438.24Z" stroke="#263238" stroke-linecap="round" stroke-linejoin="round"/>
<path d="M102.24 422.19L103.74 423.7L88.11 438.24" stroke="#263238" stroke-linecap="round" stroke-linejoin="round"/>
<path d="M88.11 431.41V407.93L100.56 420.5" stroke="#263238" stroke-linecap="round" stroke-linejoin="round"/>
<path d="M88.11 434.38V436.21" stroke="#263238" stroke-linecap="round" stroke-linejoin="round"/>
<path d="M121.54 434.66L124.73 438.24" stroke="#263238" stroke-linecap="round" stroke-linejoin="round"/>
<path d="M114.07 420.92L111.78 423.7L120.06 433" stroke="#263238" stroke-linecap="round" stroke-linejoin="round"/>
<path d="M119.76 413.98L115.64 419.01" stroke="#263238" stroke-linecap="round" stroke-linejoin="round"/>
<path d="M124.73 407.93L122.08 411.15" stroke="#263238" stroke-linecap="round" stroke-linejoin="round"/>
<path d="M106.05 407.71C105.895 407.69 105.741 407.66 105.59 407.62C103.59 407.11 101.71 404.68 100.2 403.1C99.07 401.91 88.33 401.91 87.2 403.1C85.69 404.68 83.77 407.1 81.81 407.62C81.6587 407.66 81.5051 407.69 81.35 407.71C77.55 408.11 83.2 393.96 85.04 393.05C86.88 392.14 89.26 392.24 89.54 393.4H97.86C98.14 392.24 100.51 392.15 102.36 393.05C104.21 393.95 109.85 408.11 106.05 407.71Z" fill="#BFBFBF" stroke="#263238" stroke-linecap="round" stroke-linejoin="round"/>
<path d="M105.59 407.62C103.59 407.11 101.71 404.68 100.2 403.1C99.07 401.91 88.33 401.91 87.2 403.1C85.69 404.68 83.77 407.1 81.81 407.62C83.58 405.93 85.73 401.46 86.73 400.31C87.96 398.88 88.55 399.67 88.55 399.67H98.85C98.85 399.67 99.44 398.88 100.68 400.31C101.67 401.46 103.82 405.93 105.59 407.62Z" fill="#263238"/>
<path d="M439.66 433.46L431.71 436.48L428.37 427.72L431 422.66L436.32 424.69L439.66 433.46Z" fill="#0751F5" stroke="#263238" stroke-linecap="round" stroke-linejoin="round"/>
<path d="M62.01 433.36L53.65 431.81L55.36 422.59L60.23 419.63L63.72 424.14L62.01 433.36Z" fill="#0751F5" stroke="#263238" stroke-linecap="round" stroke-linejoin="round"/>
</svg>
