<svg width="32" height="32" viewBox="0 0 32 32" fill="none" xmlns="http://www.w3.org/2000/svg">
<g opacity="0.89999">
<g opacity="0.89999">
<path opacity="0.89999" d="M31.2048 26.5095C31.2048 29.0776 29.1231 31.1595 26.555 31.1595H5.25439C2.68628 31.1595 0.60437 29.0776 0.60437 26.5095V5.2089C0.60437 2.64079 2.68628 0.558874 5.25439 0.558874H26.555C29.1231 0.558874 31.2048 2.64079 31.2048 5.2089V26.5095Z" fill="#3A5A98"/>
</g>
</g>
<path d="M24.0781 18.2361L24.5729 14.3991H20.7737V11.9495C20.7737 10.8386 21.0832 10.0815 22.676 10.0815L24.7059 10.0804V6.64887C24.3556 6.60215 23.1506 6.49748 21.7459 6.49748C18.8166 6.49748 16.8122 8.286 16.8122 11.5698V14.3991H13.4986V18.2361H16.8122V28.0807H20.7737V18.2361H24.0781Z" fill="white"/>
</svg>
