<svg width="32" height="32" viewBox="0 0 32 32" fill="none" xmlns="http://www.w3.org/2000/svg">
<g clip-path="url(#clip0)">
<g filter="url(#filter0_f)">
<path d="M16.4561 3.54988C16.323 3.54893 16.1899 3.55015 16.0568 3.55305C16.0021 3.55428 15.9475 3.55681 15.8928 3.55863C15.8862 3.5589 15.8797 3.55917 15.8731 3.55944C15.8621 3.55985 15.851 3.56012 15.84 3.56052C15.7899 3.56239 15.7397 3.56317 15.6897 3.56557C15.6747 3.56624 15.6597 3.56746 15.6447 3.56822C15.6278 3.56903 15.6109 3.56944 15.5941 3.57033C15.5522 3.57263 15.5104 3.57668 15.4685 3.57935C15.4659 3.57949 15.4633 3.57945 15.4607 3.57963C15.4596 3.5797 15.4584 3.57977 15.4572 3.5799C15.3843 3.58463 15.3115 3.58941 15.2388 3.59529C15.214 3.59729 15.1891 3.59846 15.1644 3.6006C15.1279 3.60375 15.0915 3.6083 15.055 3.61174C15.0522 3.61201 15.0493 3.61228 15.0464 3.61255C15.0457 3.61262 15.045 3.61269 15.0443 3.61283C15.0438 3.61286 15.0436 3.61279 15.0432 3.61283C14.9707 3.61971 14.8983 3.62708 14.826 3.63511C14.7701 3.64134 14.7143 3.6481 14.6585 3.65501C14.6563 3.65529 14.6542 3.65555 14.652 3.65583C14.6499 3.6561 14.6477 3.65638 14.6456 3.65665C14.6447 3.65675 14.6439 3.65678 14.6431 3.65691C14.5674 3.66637 14.492 3.67645 14.4166 3.68716C14.3591 3.69532 14.3017 3.70348 14.2444 3.71237C14.1661 3.72453 14.0881 3.73785 14.0101 3.75138C13.9537 3.76114 13.8973 3.77061 13.8412 3.78109C13.7675 3.79484 13.6942 3.80989 13.6208 3.82486C13.5606 3.83717 13.5001 3.84887 13.4401 3.86201C13.1785 3.91928 12.9196 3.98438 12.6642 4.05729C12.6306 4.06688 12.5975 4.07741 12.564 4.08727C12.4744 4.11368 12.385 4.14066 12.2963 4.16899C12.2961 4.16905 12.2959 4.16927 12.2957 4.16927C12.2952 4.1694 12.2946 4.16968 12.2941 4.16981C12.2925 4.17036 12.2909 4.1709 12.2893 4.1714C12.2877 4.17194 12.286 4.17221 12.2844 4.17276C12.234 4.18891 12.1842 4.20613 12.1341 4.2229C12.0617 4.24715 11.9895 4.27166 11.9178 4.2972C11.9174 4.29732 11.9171 4.29733 11.9167 4.29747C11.9151 4.29801 11.9136 4.29882 11.9121 4.29933C11.9101 4.30001 11.9081 4.30055 11.9062 4.30119C11.8564 4.31899 11.8069 4.33742 11.7575 4.35585C11.6842 4.38316 11.6112 4.41101 11.5387 4.43969C11.4877 4.45988 11.4369 4.48038 11.3863 4.50125C11.3849 4.50179 11.3836 4.5026 11.3822 4.50311C11.3818 4.50324 11.3812 4.50352 11.3808 4.50365C11.3806 4.50379 11.3801 4.50378 11.3797 4.50393C11.3796 4.504 11.3793 4.50406 11.3792 4.50419C11.3788 4.50433 11.3785 4.5046 11.3781 4.50474C11.313 4.53162 11.2485 4.55926 11.1841 4.58726C11.1813 4.58848 11.1786 4.58975 11.1758 4.59096C11.173 4.59219 11.1702 4.5932 11.1674 4.59441C11.1187 4.61572 11.07 4.63694 11.0217 4.65889C10.9453 4.69357 10.8699 4.72952 10.7946 4.76581C10.7554 4.78471 10.716 4.80326 10.6772 4.82259C10.6767 4.82273 10.6765 4.823 10.676 4.82314C10.6756 4.82341 10.6751 4.82341 10.6747 4.82368C10.6582 4.83188 10.6413 4.83955 10.6248 4.84783C10.5636 4.8787 10.5037 4.91138 10.4433 4.94334L10.443 4.94362C10.4423 4.94389 10.4418 4.94429 10.4411 4.9447C10.4371 4.94683 10.433 4.94893 10.429 4.95108C10.4245 4.95344 10.42 4.9556 10.4155 4.95798C10.3854 4.97404 10.3547 4.9894 10.3247 5.00574C10.3176 5.00962 10.3103 5.01325 10.3032 5.01714C10.1972 5.07525 10.0924 5.13499 9.9891 5.19651C9.91426 5.24108 9.84141 5.28784 9.76766 5.33369C9.75401 5.34218 9.74033 5.35063 9.72671 5.35916C9.68365 5.38614 9.63955 5.41188 9.59687 5.43929C9.59646 5.43956 9.59618 5.43983 9.59577 5.4401C9.54169 5.47484 9.48923 5.51134 9.43575 5.54676C9.36198 5.59563 9.28745 5.64362 9.21485 5.69375C9.08937 5.78042 8.96553 5.86898 8.84365 5.95934L8.84337 5.95962C8.8424 5.9603 8.84138 5.96101 8.8404 5.96173C8.71945 6.05146 8.60054 6.1431 8.48321 6.23635C8.48197 6.23744 8.48047 6.23824 8.47917 6.23927C8.40221 6.30047 8.32747 6.36366 8.25208 6.42634C8.25017 6.42793 8.24805 6.42926 8.24615 6.43085C8.24546 6.43139 8.24471 6.43207 8.244 6.4327C8.23782 6.43785 8.23158 6.44293 8.22541 6.44809C8.19384 6.47448 8.16134 6.49999 8.13005 6.52663C8.12977 6.5269 8.12936 6.52717 8.12895 6.52744C8.02691 6.61432 7.92707 6.70299 7.82805 6.79251C7.82379 6.79636 7.81938 6.80006 7.81513 6.80392C7.81214 6.80664 7.80896 6.80916 7.80597 6.81188C7.80514 6.8127 7.80416 6.81348 7.80328 6.81428C7.80071 6.81661 7.79776 6.81911 7.7952 6.82143L7.79492 6.82171C7.79343 6.82307 7.79183 6.82433 7.79034 6.82569C7.68145 6.92488 7.57466 7.02587 7.4695 7.12816C7.46743 7.13018 7.46512 7.13198 7.46304 7.134C7.37345 7.22127 7.28614 7.31016 7.19931 7.3996C7.18402 7.41536 7.16819 7.43074 7.15298 7.44656C7.15257 7.44697 7.15201 7.44738 7.1516 7.44792C6.32487 8.30819 5.62617 9.26542 5.07337 10.2877V10.2879C4.38334 11.5639 3.91993 12.9408 3.71785 14.3556C3.63703 14.9215 3.59795 15.4935 3.60282 16.0676C3.60406 16.211 3.6082 16.3546 3.61494 16.4982C3.62169 16.6418 3.63117 16.7857 3.6435 16.9294C3.65681 17.0845 3.67379 17.2388 3.6928 17.3924C3.69287 17.3924 3.69294 17.3937 3.69307 17.3943C3.69314 17.3943 3.69321 17.3956 3.69335 17.3959C3.69645 17.4209 3.69926 17.446 3.70251 17.471C3.70256 17.471 3.70245 17.4723 3.70251 17.4723C3.70259 17.4723 3.70264 17.4737 3.70278 17.4742C3.72131 17.6162 3.74251 17.7574 3.76581 17.898C3.76595 17.8993 3.76623 17.8997 3.76637 17.9007C3.76644 17.9007 3.76651 17.902 3.76664 17.902C3.76669 17.902 3.7666 17.902 3.76664 17.9034C3.76667 17.9034 3.76661 17.9034 3.76664 17.9034C3.77266 17.9396 3.77917 17.9757 3.7855 18.0119C3.78564 18.0133 3.78591 18.0138 3.78605 18.0149C3.78617 18.0163 3.78619 18.0163 3.78633 18.0171C3.81024 18.1531 3.83559 18.2887 3.86391 18.4233C3.86398 18.4233 3.86405 18.4247 3.86419 18.4247C3.86428 18.4247 3.86432 18.426 3.86446 18.426C3.87204 18.4622 3.88053 18.498 3.88843 18.534C3.91167 18.6397 3.93634 18.7448 3.96225 18.8495C3.97018 18.8816 3.97669 18.9143 3.98487 18.9463C3.98876 18.9616 3.99359 18.9765 3.99754 18.9917C3.99768 18.9917 3.99795 18.993 3.99809 18.9936C4.02808 19.1089 4.05999 19.2234 4.09318 19.3375C4.11175 19.4014 4.13073 19.4652 4.15029 19.5288C4.18114 19.6288 4.21291 19.7285 4.24619 19.8275C4.24874 19.8351 4.25117 19.8427 4.25373 19.8503C4.26079 19.8713 4.26677 19.8926 4.27394 19.9135C4.29192 19.9658 4.31239 20.0172 4.33104 20.0692C4.33187 20.0714 4.33267 20.0737 4.33347 20.0759C4.33375 20.0772 4.33402 20.0772 4.3343 20.0781C4.34913 20.1193 4.36403 20.1604 4.37928 20.2014C4.54078 20.6367 4.72586 21.0612 4.93313 21.4737C4.9334 21.4737 4.93368 21.475 4.93396 21.4756C4.93399 21.4756 4.93392 21.4756 4.93396 21.4756C5.35376 22.3105 5.86256 23.0965 6.4525 23.8181C7.71369 25.3611 9.33675 26.6147 11.2071 27.4493H11.2074C11.5191 27.5884 11.8375 27.7162 12.1624 27.8314H12.1626C12.65 28.0042 13.1517 28.1495 13.6657 28.2652C14.2703 28.4013 15.3033 28.4576 16.3824 28.4454C16.5366 28.4436 16.6918 28.4406 16.8468 28.4361C17.1566 28.427 17.4657 28.4126 17.7651 28.3929C18.0646 28.3731 18.3543 28.3482 18.6255 28.3183C18.8967 28.2884 19.1493 28.2536 19.3744 28.214C19.5995 28.1745 19.7973 28.1303 19.9584 28.0816C20.256 27.9918 20.5887 27.8772 20.9253 27.7516C21.0936 27.6887 21.2628 27.6232 21.429 27.5566C22.2598 27.2232 23.0144 26.8628 23.1972 26.6889C23.3192 26.5729 23.6295 26.3509 23.8868 26.1957C23.9291 26.1702 23.9755 26.1383 24.0234 26.1034C24.0341 26.0956 24.0447 26.0877 24.0557 26.0795C24.0785 26.0623 24.103 26.042 24.1268 26.023C24.1276 26.023 24.1284 26.0215 24.1292 26.0208C24.1779 25.982 24.2281 25.9401 24.2806 25.8942C24.2817 25.8929 24.2828 25.8926 24.2839 25.8915C24.3045 25.8734 24.3252 25.8554 24.3464 25.8363C24.4179 25.7719 24.4918 25.7032 24.5686 25.6283C24.5697 25.6269 24.5709 25.6257 24.5721 25.6246C24.6585 25.5402 24.7474 25.4502 24.8385 25.3548C24.8388 25.3548 24.8392 25.3534 24.8396 25.3534C25.6258 24.5296 26.5495 23.3404 26.9704 22.5429C27.9712 20.6463 28.2644 19.4806 28.3618 17.0135C28.4103 15.7841 28.3978 14.5041 28.334 14.1691L28.2182 13.5602H16.3284L16.376 16.0458L16.424 18.5314L19.6428 18.5513C21.4132 18.5622 22.8988 18.6089 22.9442 18.6553C23.1385 18.8538 22.3041 20.5504 21.6552 21.2765C21.3624 21.6041 21.0144 21.8987 20.6267 22.1574C20.5264 22.2243 20.4232 22.2885 20.3177 22.3505C20.3158 22.3519 20.314 22.3531 20.3121 22.3542C20.3111 22.3542 20.3103 22.3555 20.3094 22.3558C20.3087 22.3558 20.308 22.3572 20.3072 22.3572C20.2421 22.3953 20.1743 22.4305 20.1073 22.4667C20.069 22.4875 20.0318 22.5095 19.9929 22.5296C19.9845 22.534 19.9761 22.5381 19.9678 22.5424C19.751 22.6533 19.5261 22.7544 19.2946 22.8449C19.2939 22.8449 19.2934 22.8449 19.2927 22.8462H19.2913C19.2901 22.8462 19.2888 22.8476 19.2876 22.8476C19.2842 22.8489 19.2808 22.8503 19.2773 22.8515C19.1605 22.8968 19.0421 22.9398 18.9223 22.9797C18.9212 22.9797 18.9202 22.981 18.9191 22.981C18.9169 22.9824 18.9148 22.9824 18.9126 22.9832C18.9098 22.9846 18.9068 22.985 18.904 22.9859C18.7903 23.0235 18.6756 23.0584 18.5597 23.091C18.555 23.0924 18.5504 23.094 18.5457 23.0952C18.5447 23.0952 18.5439 23.0952 18.543 23.0965C18.5419 23.0965 18.5409 23.0966 18.5398 23.0979C18.4625 23.1194 18.3841 23.1379 18.306 23.1571C18.2659 23.167 18.2261 23.178 18.1858 23.1873C18.1711 23.1907 18.1564 23.1941 18.1417 23.1974C18.1412 23.1975 18.1407 23.1974 18.1403 23.1974C18.0211 23.2241 17.9013 23.2488 17.7809 23.2701C17.7804 23.2702 17.7798 23.2701 17.7793 23.2701C17.7789 23.2701 17.7786 23.2701 17.7782 23.2701C17.7752 23.2701 17.7723 23.2714 17.7693 23.2714C17.6586 23.2909 17.5475 23.3073 17.4361 23.3221C17.4338 23.3221 17.4316 23.3235 17.4294 23.3235C17.4273 23.3235 17.4252 23.3235 17.4232 23.3248C17.4075 23.3269 17.3917 23.329 17.376 23.3309C17.3719 23.3309 17.3678 23.3323 17.3636 23.3326C17.25 23.3466 17.136 23.3582 17.0221 23.3673C17.0019 23.369 16.9816 23.3702 16.9614 23.3715C16.9614 23.3715 16.9613 23.3715 16.9612 23.3715C16.9602 23.3716 16.9594 23.3715 16.9585 23.3715C16.9575 23.3716 16.9565 23.3715 16.9555 23.3715C16.8487 23.3792 16.7419 23.3849 16.6352 23.388C16.6332 23.3881 16.6311 23.388 16.629 23.388C16.6194 23.388 16.6098 23.3894 16.6002 23.3894C16.4835 23.3923 16.367 23.3918 16.2508 23.3894C16.2298 23.3894 16.2088 23.388 16.1878 23.3877C16.1867 23.3877 16.1854 23.3878 16.1843 23.3877C16.1832 23.3877 16.1821 23.3877 16.1811 23.3877C16.1212 23.3858 16.0618 23.3815 16.0022 23.3782C15.95 23.3754 15.8976 23.374 15.8457 23.3699C15.8264 23.3684 15.8073 23.3663 15.788 23.3646C15.6892 23.3561 15.5908 23.3453 15.493 23.3325C15.4696 23.3295 15.4461 23.3268 15.4227 23.3236C15.3132 23.3081 15.2045 23.2897 15.0968 23.2689C15.0758 23.2648 15.0549 23.2607 15.034 23.2564C15.0328 23.2564 15.0317 23.2564 15.0305 23.255C14.9193 23.2323 14.8088 23.2076 14.7 23.1789C14.5734 23.1455 14.4485 23.1096 14.3255 23.0712H14.3253C13.587 22.8403 12.9138 22.5181 12.3141 22.1197H12.3138C12.1139 21.9869 11.9224 21.8457 11.7392 21.6965H11.7389C11.6961 21.6616 11.6553 21.6248 11.6134 21.5891C11.6122 21.5877 11.6109 21.5868 11.6096 21.5857C11.205 21.2399 10.8426 20.8555 10.5294 20.436C10.3908 20.2503 10.2614 20.0581 10.1418 19.8597C9.84256 19.3637 9.60361 18.8295 9.43005 18.266C9.4163 18.2213 9.405 18.1757 9.39207 18.1306C9.32775 17.9067 9.27385 17.6782 9.23017 17.4458C9.2279 17.4337 9.22565 17.4216 9.22344 17.4095C9.19916 17.2768 9.17861 17.1427 9.16122 17.0075C9.1589 16.9895 9.15613 16.9712 9.15395 16.9531C9.15387 16.9531 9.15381 16.9518 9.15367 16.9512C9.15312 16.9467 9.15284 16.9421 9.15229 16.9377C9.1452 16.8783 9.13891 16.8186 9.13317 16.7588C9.12941 16.7195 9.12609 16.68 9.12293 16.6405C9.12282 16.6391 9.12279 16.6376 9.12266 16.6363C9.11566 16.5492 9.11009 16.4616 9.10595 16.3736C9.10595 16.3735 9.10596 16.3736 9.10595 16.3736C9.1032 16.3138 9.10066 16.2541 9.09922 16.194C9.09812 16.1466 9.0974 16.0991 9.09707 16.0515C9.09707 16.0501 9.09708 16.0501 9.09707 16.0493C9.09694 16.0156 9.09762 15.9816 9.0979 15.9477C9.09817 15.9076 9.09818 15.8677 9.09901 15.8275C9.09997 15.7833 9.10089 15.7392 9.10251 15.6948C9.10583 15.6054 9.11052 15.5154 9.11678 15.4253C9.11946 15.3864 9.12245 15.3475 9.12568 15.3085C9.12948 15.2629 9.13459 15.2169 9.13914 15.1711C9.14304 15.1319 9.14653 15.0928 9.15099 15.0535C9.15209 15.0433 9.15275 15.0332 9.15395 15.023C9.15564 15.0086 9.15678 14.9942 9.15853 14.9798C9.15922 14.9743 9.16001 14.9688 9.16069 14.9633C9.16693 14.9129 9.17534 14.8621 9.18251 14.8116C9.18612 14.7861 9.1897 14.7606 9.19355 14.7351C9.19809 14.705 9.20188 14.6751 9.20675 14.6449C9.21173 14.614 9.21678 14.5831 9.2221 14.5521C9.24185 14.4373 9.26306 14.3224 9.28756 14.2069C9.31108 14.096 9.33795 13.986 9.36784 13.8771C9.39012 13.7959 9.41594 13.7157 9.44165 13.6356C9.44168 13.6355 9.44162 13.6356 9.44165 13.6356C9.47327 13.5371 9.50764 13.4397 9.54428 13.343C9.54553 13.3397 9.54655 13.3364 9.54779 13.3332H9.54806C9.54809 13.3331 9.54803 13.3332 9.54806 13.3332C9.54834 13.3318 9.54889 13.3316 9.54917 13.3307C9.5848 13.2373 9.62296 13.1448 9.66312 13.0532C9.66656 13.0453 9.66987 13.0374 9.67335 13.0296C9.71359 12.9388 9.75624 12.8492 9.80077 12.7603C9.80118 12.7589 9.80146 12.7587 9.80187 12.7578C9.80229 12.7565 9.80256 12.7562 9.80297 12.7554C9.80493 12.7515 9.80693 12.7477 9.80891 12.7437C9.80896 12.7436 9.80918 12.7437 9.80918 12.7437H9.80946C9.80973 12.7437 9.80973 12.7424 9.81001 12.7424C9.81147 12.7395 9.81285 12.7365 9.81431 12.7337C9.82308 12.7164 9.83313 12.6997 9.84206 12.6825C9.87706 12.6149 9.91241 12.5475 9.94981 12.4811C9.9553 12.4713 9.9607 12.4616 9.96624 12.4519C10.0129 12.3701 10.0613 12.2893 10.1114 12.2094C10.1121 12.208 10.1127 12.2071 10.1133 12.206C10.1186 12.1976 10.1239 12.1894 10.1292 12.181C10.1298 12.1797 10.1305 12.1793 10.1311 12.1783C10.1314 12.1783 10.1314 12.177 10.1317 12.177C10.1328 12.1753 10.1338 12.1736 10.1349 12.1719C10.1353 12.1719 10.1356 12.1706 10.136 12.17C10.1361 12.1699 10.1361 12.17 10.1363 12.17C10.1364 12.17 10.1367 12.17 10.1368 12.1687H10.1371C10.1544 12.1416 10.173 12.1152 10.1907 12.0883C10.2242 12.0373 10.2573 11.9859 10.2923 11.9357C10.3005 11.9238 10.3089 11.912 10.3173 11.9002C10.3729 11.8214 10.43 11.7436 10.4889 11.667C10.4939 11.6604 10.4989 11.6538 10.504 11.6473C10.5044 11.6473 10.5049 11.646 10.5054 11.6457C10.5058 11.6457 10.5063 11.6443 10.5067 11.6441C10.5069 11.6441 10.507 11.6441 10.5073 11.6427C10.552 11.585 10.5984 11.5285 10.6449 11.4721C10.6618 11.4516 10.6779 11.4306 10.6951 11.4103C10.6965 11.4086 10.6979 11.4069 10.6994 11.4052L10.6999 11.4047C10.7002 11.4044 10.7005 11.404 10.7007 11.4036L10.7016 11.4028C10.7032 11.4008 10.705 11.3989 10.7067 11.3969C10.7728 11.319 10.8403 11.242 10.9098 11.1666C10.9112 11.1651 10.9127 11.1634 10.9141 11.1619L10.9149 11.161C10.9172 11.1585 10.9196 11.1561 10.9219 11.1536C10.9228 11.1527 10.9238 11.1519 10.9246 11.151C10.9949 11.0751 11.0666 11.0004 11.1401 10.9273C11.2174 10.8505 11.2965 10.7751 11.3772 10.7015C11.7659 10.3467 12.1933 10.0304 12.6473 9.758C12.6531 9.75452 12.6588 9.75083 12.6646 9.74738C12.6766 9.74021 12.6883 9.73248 12.7004 9.72536C12.7021 9.72441 12.7038 9.72343 12.7055 9.72244C12.7731 9.68269 12.8418 9.64505 12.9105 9.60729C12.9411 9.59049 12.9713 9.57302 13.0021 9.55661C13.0645 9.52337 13.1277 9.49187 13.1909 9.4603C13.1916 9.45989 13.1924 9.45962 13.1931 9.45921C13.1979 9.45684 13.2026 9.45441 13.2074 9.45205C13.2394 9.43614 13.2713 9.41977 13.3035 9.40429C13.3685 9.37314 13.4342 9.3437 13.4999 9.31434C13.5369 9.29784 13.5737 9.28092 13.6109 9.26499C13.6708 9.23934 13.7312 9.2151 13.7917 9.19097C13.7925 9.1907 13.7932 9.19029 13.7941 9.18988C13.8392 9.17189 13.8844 9.15369 13.9298 9.13655C13.9317 9.13587 13.9334 9.13511 13.9352 9.13443C13.9368 9.13388 13.9383 9.13335 13.9398 9.13284C13.9865 9.11533 14.0335 9.09903 14.0804 9.08243C14.0906 9.07885 14.1007 9.07511 14.1109 9.07155C14.1551 9.05612 14.1995 9.04078 14.2439 9.02618C14.3017 9.00721 14.3596 8.98908 14.4177 8.97152C14.4218 8.9703 14.426 8.96904 14.4301 8.96779C14.4659 8.95704 14.5019 8.9467 14.5379 8.93649C14.5442 8.93469 14.5504 8.93269 14.5567 8.93092C14.5608 8.9297 14.565 8.92862 14.5691 8.92747C14.5701 8.92719 14.5709 8.92692 14.5718 8.92665C14.6253 8.91171 14.6791 8.8974 14.7329 8.88367C14.7362 8.88285 14.7395 8.88187 14.7429 8.88102C14.783 8.87086 14.8233 8.86159 14.8635 8.8521C14.8783 8.84863 14.8929 8.84487 14.9077 8.84149C14.9083 8.84137 14.9088 8.84135 14.9093 8.84122C14.9624 8.82907 15.0156 8.8174 15.0688 8.80646C15.1229 8.79535 15.1772 8.785 15.2315 8.77515C15.2322 8.77502 15.2329 8.77501 15.2337 8.77488C15.288 8.76502 15.3424 8.75533 15.3969 8.74675C15.3992 8.74635 15.4014 8.74607 15.4036 8.74567C15.4287 8.74175 15.4539 8.7387 15.4791 8.73506C15.4872 8.73384 15.4954 8.73277 15.5036 8.73161C15.5231 8.72884 15.5427 8.72598 15.5623 8.72339C15.6191 8.71583 15.6759 8.7083 15.7328 8.70216C15.7917 8.69582 15.8508 8.69105 15.9098 8.68624C15.9587 8.68226 16.0074 8.67775 16.0563 8.67483C16.0574 8.67476 16.0587 8.6747 16.0598 8.67456C16.0631 8.67442 16.0663 8.67449 16.0695 8.67429C16.0717 8.67417 16.0739 8.67416 16.076 8.67402C16.1327 8.67081 16.1893 8.66889 16.246 8.66712C16.2468 8.6671 16.2476 8.66715 16.2484 8.66712C16.2614 8.66671 16.2745 8.66643 16.2875 8.66603C16.324 8.66508 16.3606 8.66341 16.3971 8.66311C16.4581 8.66257 16.519 8.66434 16.58 8.6655C16.5871 8.66564 16.5942 8.6656 16.6013 8.66577C16.6429 8.66672 16.6847 8.66686 16.7263 8.6687C16.727 8.66872 16.7275 8.66867 16.7282 8.6687C16.7746 8.67071 16.8209 8.67495 16.8672 8.67798C16.8741 8.67839 16.881 8.6788 16.8879 8.67934C16.8951 8.67989 16.9023 8.68043 16.9095 8.68094C16.9159 8.68134 16.9224 8.68175 16.9289 8.68229C16.9743 8.68572 17.0198 8.68795 17.0652 8.69237C17.0655 8.69239 17.0657 8.69234 17.066 8.69237C17.1307 8.69867 17.1952 8.70763 17.2597 8.71598C17.2639 8.71653 17.2681 8.71707 17.2724 8.71758C17.274 8.71785 17.2756 8.71812 17.2772 8.71839C17.2801 8.7188 17.283 8.71907 17.2858 8.71947C17.3036 8.72185 17.3214 8.72358 17.3392 8.72611C17.3588 8.72891 17.3785 8.7308 17.3982 8.73379C17.5077 8.75053 17.617 8.76987 17.7257 8.7927C17.7906 8.8063 17.8568 8.82168 17.9243 8.8386C17.9917 8.85551 18.0603 8.87409 18.1298 8.89405C18.1299 8.89407 18.1299 8.89403 18.1301 8.89405C18.4082 8.97388 18.7002 9.07687 18.9883 9.19467C19.2764 9.31246 19.5602 9.44505 19.8215 9.58364C20.1481 9.75686 20.4393 9.93957 20.6593 10.1151H20.6596C20.7035 10.1501 20.7447 10.185 20.7827 10.2194L21.1757 10.5749L22.9808 8.80304C23.4772 8.31579 23.9284 7.85184 24.2555 7.49685C24.3373 7.40815 24.4114 7.32623 24.4764 7.25248V7.25221C24.6389 7.06789 24.7455 6.93455 24.7765 6.87279V6.87252C24.7827 6.86018 24.786 6.85081 24.786 6.84439C24.786 6.82543 24.7786 6.80256 24.7644 6.7762C24.722 6.69716 24.6187 6.58652 24.4708 6.45595H24.4705C24.2733 6.28182 23.9968 6.07194 23.6796 5.85287H23.6793C23.5208 5.74335 23.3521 5.63144 23.178 5.52068H23.1777C22.8295 5.29913 22.4599 5.08156 22.1075 4.89504H22.1072C21.931 4.80178 21.7593 4.71616 21.5965 4.64166C21.4892 4.59257 21.3806 4.54546 21.2713 4.49972C21.2464 4.48928 21.2212 4.47946 21.1962 4.4692C21.1137 4.4354 21.031 4.40242 20.9475 4.3705C20.9464 4.37009 20.9452 4.36968 20.944 4.36914C20.9426 4.3686 20.9413 4.36805 20.94 4.36755C20.9398 4.36748 20.9396 4.36741 20.9394 4.36728C20.939 4.36714 20.9386 4.36687 20.938 4.36674C20.9051 4.35418 20.872 4.34212 20.8389 4.32986C20.8388 4.3298 20.8385 4.32991 20.8384 4.32986C20.838 4.32972 20.8374 4.32945 20.837 4.32931C20.8353 4.32863 20.8336 4.32809 20.8319 4.32745C20.7621 4.30163 20.6922 4.27609 20.6218 4.25157C20.5729 4.23456 20.5238 4.21807 20.4747 4.20169C20.413 4.18112 20.351 4.16105 20.2888 4.14146C20.2427 4.12694 20.1967 4.11245 20.1503 4.09847C20.1502 4.09843 20.1499 4.09853 20.1498 4.09847C20.1483 4.09807 20.1469 4.09752 20.1455 4.09711C20.1444 4.09671 20.1431 4.09644 20.142 4.09603C20.0725 4.07512 20.0026 4.05523 19.9327 4.03553C19.9287 4.03445 19.9248 4.0332 19.9208 4.03209C19.9171 4.031 19.9135 4.02993 19.9098 4.0289C19.9088 4.02863 19.908 4.02836 19.9071 4.02809C19.8748 4.0191 19.8427 4.00976 19.8104 4.00103C19.8103 4.001 19.8102 4.00105 19.8101 4.00103C19.8095 4.00089 19.809 4.00062 19.8085 4.00049C19.7186 3.97623 19.6284 3.95325 19.5378 3.93097C19.5159 3.92559 19.4942 3.91978 19.4723 3.91452C19.47 3.91398 19.4676 3.91343 19.4653 3.91293C19.464 3.91266 19.4628 3.91211 19.4615 3.91184C19.3448 3.8839 19.2276 3.85745 19.1097 3.83277C18.9907 3.80787 18.8711 3.78485 18.7512 3.76326C18.7263 3.75878 18.7012 3.75487 18.6763 3.75053C18.6761 3.7505 18.6759 3.75056 18.6757 3.75053L18.6714 3.74971C18.6711 3.74966 18.6709 3.74976 18.6706 3.74971C18.6699 3.7496 18.6694 3.74958 18.6687 3.74945C18.6642 3.74863 18.6597 3.74782 18.6552 3.74705C18.5717 3.73266 18.4881 3.71872 18.4042 3.70592C18.4033 3.7058 18.4025 3.70579 18.4017 3.70565C18.4016 3.70562 18.4013 3.70568 18.4012 3.70565L18.4009 3.70538C18.4004 3.7053 18.3998 3.70525 18.3993 3.70511C18.3573 3.69873 18.3151 3.69306 18.273 3.68707C18.1963 3.67617 18.1196 3.6656 18.0426 3.65603C17.998 3.65048 17.9534 3.64521 17.9088 3.64011C17.8328 3.63143 17.7568 3.62362 17.6806 3.61623C17.6781 3.61595 17.6756 3.61569 17.673 3.61541C17.6721 3.61533 17.6713 3.61528 17.6704 3.61514C17.6702 3.61512 17.6701 3.61487 17.6698 3.61487C17.6695 3.61484 17.6693 3.61489 17.669 3.61487C17.6683 3.6148 17.6675 3.61473 17.6668 3.61459C17.6664 3.61456 17.6661 3.61463 17.6657 3.61459C17.6272 3.6109 17.5887 3.60708 17.5502 3.60371C17.4707 3.59677 17.3911 3.59096 17.3115 3.58541L17.2994 3.58459C17.2735 3.58282 17.2477 3.58012 17.2218 3.57849C17.2097 3.57768 17.1975 3.5774 17.1854 3.57663C17.0994 3.57142 17.0133 3.56747 16.9271 3.5639C16.8902 3.56236 16.8535 3.56036 16.8166 3.55912C16.6965 3.5551 16.5762 3.55231 16.4559 3.55143L16.4561 3.54988Z" fill="black"/>
</g>
<path d="M13.6658 28.2662C8.18187 27.0313 4.11603 22.4324 3.64378 16.9302C3.24891 12.329 5.73635 7.7296 9.9895 5.19657C13.2947 3.22814 18.0162 3.00181 21.5963 4.64022C22.8986 5.2362 24.7858 6.53951 24.7858 6.84286C24.7858 6.94559 23.9735 7.82698 22.9806 8.80152L21.1755 10.5734L20.7824 10.2178C20.1743 9.66751 18.7628 9.00884 17.7256 8.79123C14.1242 8.0355 10.0408 10.656 9.28777 14.2064C8.40127 18.3862 10.6483 22.1114 14.7 23.179C17.1058 23.813 20.1279 22.9868 21.6554 21.2776C22.3043 20.5514 23.1386 18.8547 22.9443 18.6562C22.8989 18.6099 21.4133 18.5631 19.6429 18.5522L16.4241 18.5325L16.3764 16.0469L16.3286 13.5613H28.2182L28.3342 14.1703C28.398 14.5053 28.4105 15.7853 28.362 17.0147C28.2646 19.4818 27.9713 20.6474 26.9705 22.544C26.3512 23.7175 24.6436 25.7402 23.8869 26.1967C23.6296 26.3519 23.3193 26.5738 23.1973 26.6899C22.9048 26.9681 21.1486 27.7232 19.9584 28.0824C18.6692 28.4716 15.0476 28.5773 13.6657 28.2661L13.6658 28.2662Z" fill="#607EF4"/>
<path d="M16.4561 3.54994C14.1558 3.53293 11.8487 4.08906 9.98952 5.19627C5.73637 7.72928 3.24878 12.3287 3.64366 16.9298C4.11588 22.432 8.18176 27.0309 13.6657 28.2656C15.0476 28.5768 18.6692 28.4711 19.9585 28.082C21.1486 27.7228 22.9048 26.9675 23.1972 26.6893C23.3192 26.5732 23.6295 26.3512 23.8868 26.196C24.1291 26.0499 24.4693 25.7422 24.8396 25.3541L20.6268 22.1581C18.9915 23.249 16.6448 23.6912 14.7 23.1788C10.6483 22.1112 8.40108 18.3858 9.28765 14.2059C10.0407 10.6556 14.1239 8.0352 17.7255 8.79092C18.7628 9.00857 20.1742 9.66732 20.7825 10.2176L21.1755 10.5731L22.9806 8.80127C23.9734 7.82674 24.7858 6.94532 24.7858 6.84262C24.7858 6.53921 22.8986 5.23582 21.5963 4.63986C20.03 3.92307 18.245 3.56313 16.4559 3.5499L16.4561 3.54994Z" fill="#68A851"/>
<path d="M16.456 3.54994C14.1557 3.53293 11.8487 4.08906 9.98948 5.19627C5.73636 7.72928 3.24879 12.3287 3.64366 16.9298C3.78222 18.5444 4.23212 20.08 4.93453 21.4768L9.39219 18.1304C9.04616 16.9254 8.99391 15.591 9.28767 14.2059C10.0407 10.6556 14.1239 8.03521 17.7255 8.79093C18.7628 9.00859 20.1742 9.66734 20.7824 10.2176L21.1754 10.5731L22.9806 8.80128C23.9734 7.82675 24.7857 6.94533 24.7857 6.84263C24.7857 6.53922 22.8985 5.23583 21.5963 4.63987C20.03 3.92308 18.245 3.56314 16.4559 3.54991L16.456 3.54994Z" fill="#E9BF06"/>
<path d="M16.456 3.54994C14.1557 3.53293 11.8487 4.08906 9.9895 5.19627C7.86852 6.4594 6.18697 8.2364 5.08276 10.2711L9.44181 13.6347C10.4864 10.3806 14.3204 8.07637 17.7256 8.79093C18.7628 9.00859 20.1743 9.66734 20.7825 10.2176L21.1755 10.5731L22.9807 8.80128C23.9734 7.82675 24.7858 6.94533 24.7858 6.84263C24.7858 6.53922 22.8986 5.23583 21.5963 4.63987C20.0301 3.92308 18.2451 3.56314 16.4559 3.54991L16.456 3.54994Z" fill="#CA4B3A"/>
</g>
<defs>
<filter id="filter0_f" x="-244.041" y="-244.094" width="520.076" height="520.185" filterUnits="userSpaceOnUse" color-interpolation-filters="sRGB">
<feFlood flood-opacity="0" result="BackgroundImageFix"/>
<feBlend mode="normal" in="SourceGraphic" in2="BackgroundImageFix" result="shape"/>
<feGaussianBlur stdDeviation="123.822" result="effect1_foregroundBlur"/>
</filter>
<clipPath id="clip0">
<rect width="32" height="32" fill="white"/>
</clipPath>
</defs>
</svg>
