<svg width="39" height="22" viewBox="0 0 39 22" fill="none" xmlns="http://www.w3.org/2000/svg">
<path d="M4.83398 17C2.7832 17 1.75781 15.9746 1.75781 13.9238V6.80469C1.75781 4.75391 2.7832 3.72852 4.83398 3.72852H7.55859C9.60938 3.72852 10.6348 4.75391 10.6348 6.80469V7.77148L8.96484 8.5625H8.87695V6.80469C8.87695 5.80859 8.4375 5.31055 7.55859 5.31055H4.83398C3.95508 5.31055 3.51562 5.80859 3.51562 6.80469V13.9238C3.51562 14.9199 3.95508 15.418 4.83398 15.418H7.55859C8.4375 15.418 8.87695 14.9199 8.87695 13.9238V11.1641H5.81836V11.0762L6.53027 9.56445H10.6348V13.9238C10.6348 15.9746 9.60938 17 7.55859 17H4.83398Z" fill="#E41414"/>
<path d="M14.7578 17.3516V6.80469C14.7578 4.75391 15.7832 3.72852 17.834 3.72852H20.5586C21.6133 3.72852 22.3457 4.00977 22.7559 4.57227C23.2246 4.00977 23.957 3.72852 24.9531 3.72852H27.6777C29.7285 3.72852 30.7539 4.75391 30.7539 6.80469V16.5605L29.084 17.3516H28.9961V6.80469C28.9961 5.80859 28.5566 5.31055 27.6777 5.31055H24.9531C24.0742 5.31055 23.6348 5.80859 23.6348 6.80469V16.5605L21.9648 17.3516H21.877V6.80469C21.877 5.80859 21.4375 5.31055 20.5586 5.31055H17.834C16.9551 5.31055 16.5156 5.80859 16.5156 6.80469V16.5605L14.8457 17.3516H14.7578Z" fill="#E6E6E6"/>
</svg>
