<svg width="160" height="160" viewBox="0 0 160 160" fill="none" xmlns="http://www.w3.org/2000/svg">
<path d="M80 160C124.183 160 160 124.183 160 80C160 35.8172 124.183 0 80 0C35.8172 0 0 35.8172 0 80C0 124.183 35.8172 160 80 160Z" fill="#2F9E41"/>
<path d="M87.7538 101.77V94.7362C96.4782 89.4417 103.587 76.2523 103.587 63.0534C103.587 41.8668 103.587 24.6882 79.8363 24.6882C56.0852 24.6882 56.0852 41.8677 56.0852 63.0534C56.0852 76.2514 63.1946 89.4415 71.9187 94.7362V101.77C45.0642 104.132 24.4189 118.344 24.4189 135.524H135.254C135.254 118.345 114.607 104.132 87.7543 101.77H87.7538Z" fill="white"/>
</svg>
